<?xml version="1.0" encoding="utf-8" standalone="no"?>
<!DOCTYPE svg PUBLIC "-//W3C//DTD SVG 1.1//EN"
  "http://www.w3.org/Graphics/SVG/1.1/DTD/svg11.dtd">
<svg xmlns:xlink="http://www.w3.org/1999/xlink" width="921.6pt" height="518.4pt" viewBox="0 0 921.6 518.4" xmlns="http://www.w3.org/2000/svg" version="1.1">
 <metadata>
  <rdf:RDF xmlns:dc="http://purl.org/dc/elements/1.1/" xmlns:cc="http://creativecommons.org/ns#" xmlns:rdf="http://www.w3.org/1999/02/22-rdf-syntax-ns#">
   <cc:Work>
    <dc:type rdf:resource="http://purl.org/dc/dcmitype/StillImage"/>
    <dc:format>image/svg+xml</dc:format>
    <dc:creator>
     <cc:Agent>
      <dc:title>Matplotlib v3.11.0, https://matplotlib.org/</dc:title>
     </cc:Agent>
    </dc:creator>
   </cc:Work>
  </rdf:RDF>
 </metadata>
 <defs>
  <style type="text/css">*{stroke-linejoin: round; stroke-linecap: butt}</style>
 </defs>
 <g id="figure_1">
  <g id="patch_1">
   <path d="M 0 518.4
L 921.6 518.4
L 921.6 0
L 0 0
z
" style="fill: #ffffff"/>
  </g>
  <g id="axes_1">
   <g id="patch_2">
    <path d="M 59.482344 476.277656
L 904.32 476.277656
L 904.32 36.32
L 59.482344 36.32
z
" style="fill: #ffffff"/>
   </g>
   <g id="FillBetweenPolyCollection_1">
    <path d="M 59.482344 442.633843
L 59.482344 476.277656
L 61.430591 476.277656
L 63.378839 476.277656
L 65.327086 476.277656
L 67.275333 476.277656
L 69.223581 476.277656
L 71.171828 476.277656
L 73.120076 476.277656
L 75.068323 476.277656
L 77.016571 476.277656
L 78.964818 476.277656
L 80.913065 476.277656
L 82.861313 476.277656
L 84.80956 476.277656
L 86.757808 476.277656
L 88.706055 476.277656
L 90.654302 476.277656
L 92.60255 476.277656
L 94.550797 476.277656
L 96.499045 476.277656
L 98.447292 476.277656
L 100.39554 476.277656
L 102.343787 476.277656
L 104.292034 476.277656
L 106.240282 476.277656
L 108.188529 476.277656
L 110.136777 476.277656
L 112.085024 476.277656
L 114.033271 476.277656
L 115.981519 476.277656
L 117.929766 476.277656
L 119.878014 476.277656
L 121.826261 476.277656
L 123.774509 476.277656
L 125.722756 476.277656
L 127.671003 476.277656
L 129.619251 476.277656
L 131.567498 476.277656
L 133.515746 476.277656
L 135.463993 476.277656
L 137.41224 476.277656
L 139.360488 476.277656
L 141.308735 476.277656
L 143.256983 476.277656
L 145.20523 476.277656
L 147.153478 476.277656
L 149.101725 476.277656
L 151.049972 476.277656
L 152.99822 476.277656
L 154.946467 476.277656
L 156.894715 476.277656
L 158.842962 476.277656
L 160.791209 476.277656
L 162.739457 476.277656
L 164.687704 476.277656
L 166.635952 476.277656
L 168.584199 476.277656
L 170.532447 476.277656
L 172.480694 476.277656
L 174.428941 476.277656
L 176.377189 476.277656
L 178.325436 476.277656
L 180.273684 476.277656
L 182.221931 476.277656
L 184.170178 476.277656
L 186.118426 476.277656
L 188.066673 476.277656
L 190.014921 476.277656
L 191.963168 476.277656
L 193.911416 476.277656
L 195.859663 476.277656
L 197.80791 476.277656
L 199.756158 476.277656
L 201.704405 476.277656
L 203.652653 476.277656
L 205.6009 476.277656
L 207.549147 476.277656
L 209.497395 476.277656
L 211.445642 476.277656
L 213.39389 476.277656
L 215.342137 476.277656
L 217.290385 476.277656
L 219.238632 476.277656
L 221.186879 476.277656
L 223.135127 476.277656
L 225.083374 476.277656
L 227.031622 476.277656
L 228.979869 476.277656
L 230.928116 476.277656
L 232.876364 476.277656
L 234.824611 476.277656
L 236.772859 476.277656
L 238.721106 476.277656
L 240.669354 476.277656
L 242.617601 476.277656
L 244.565848 476.277656
L 246.514096 476.277656
L 248.462343 476.277656
L 250.410591 476.277656
L 252.358838 476.277656
L 254.307085 476.277656
L 256.255333 476.277656
L 258.20358 476.277656
L 260.151828 476.277656
L 262.100075 476.277656
L 264.048323 476.277656
L 265.99657 476.277656
L 267.944817 476.277656
L 269.893065 476.277656
L 271.841312 476.277656
L 273.78956 476.277656
L 275.737807 476.277656
L 277.686054 476.277656
L 279.634302 476.277656
L 281.582549 476.277656
L 283.530797 476.277656
L 285.479044 476.277656
L 287.427292 476.277656
L 289.375539 476.277656
L 291.323786 476.277656
L 293.272034 476.277656
L 295.220281 476.277656
L 297.168529 476.277656
L 299.116776 476.277656
L 301.065023 476.277656
L 303.013271 476.277656
L 304.961518 476.277656
L 306.909766 476.277656
L 308.858013 476.277656
L 310.806261 476.277656
L 312.754508 476.277656
L 314.702755 476.277656
L 316.651003 476.277656
L 318.59925 476.277656
L 320.547498 476.277656
L 322.495745 476.277656
L 324.443993 476.277656
L 326.39224 476.277656
L 328.340487 476.277656
L 330.288735 476.277656
L 332.236982 476.277656
L 334.18523 476.277656
L 336.133477 476.277656
L 338.081724 476.277656
L 340.029972 476.277656
L 341.978219 476.277656
L 343.926467 476.277656
L 345.874714 476.277656
L 347.822962 476.277656
L 349.771209 476.277656
L 351.719456 476.277656
L 353.667704 476.277656
L 355.615951 476.277656
L 357.564199 476.277656
L 359.512446 476.277656
L 361.460693 476.277656
L 363.408941 476.277656
L 365.357188 476.277656
L 367.305436 476.277656
L 369.253683 476.277656
L 371.201931 476.277656
L 373.150178 476.277656
L 375.098425 476.277656
L 377.046673 476.277656
L 378.99492 476.277656
L 380.943168 476.277656
L 382.891415 476.277656
L 384.839662 476.277656
L 386.78791 476.277656
L 388.736157 476.277656
L 390.684405 476.277656
L 392.632652 476.277656
L 394.5809 476.277656
L 396.529147 476.277656
L 398.477394 476.277656
L 400.425642 476.277656
L 402.373889 476.277656
L 404.322137 476.277656
L 406.270384 476.277656
L 408.218631 476.277656
L 410.166879 476.277656
L 412.115126 476.277656
L 414.063374 476.277656
L 416.011621 476.277656
L 417.959869 476.277656
L 419.908116 476.277656
L 421.856363 476.277656
L 423.804611 476.277656
L 425.752858 476.277656
L 427.701106 476.277656
L 429.649353 476.277656
L 431.5976 476.277656
L 433.545848 476.277656
L 435.494095 476.277656
L 437.442343 476.277656
L 439.39059 476.277656
L 441.338838 476.277656
L 443.287085 476.277656
L 445.235332 476.277656
L 447.18358 476.277656
L 449.131827 476.277656
L 451.080075 476.277656
L 453.028322 476.277656
L 454.976569 476.277656
L 456.924817 476.277656
L 458.873064 476.277656
L 460.821312 476.277656
L 462.769559 476.277656
L 464.717807 476.277656
L 466.666054 476.277656
L 468.614301 476.277656
L 470.562549 476.277656
L 472.510796 476.277656
L 474.459044 476.277656
L 476.407291 476.277656
L 478.355538 476.277656
L 480.303786 476.277656
L 482.252033 476.277656
L 484.200281 476.277656
L 486.148528 476.277656
L 488.096776 476.277656
L 490.045023 476.277656
L 491.99327 476.277656
L 493.941518 476.277656
L 495.889765 476.277656
L 497.838013 476.277656
L 499.78626 476.277656
L 501.734507 476.277656
L 503.682755 476.277656
L 505.631002 476.277656
L 507.57925 476.277656
L 509.527497 476.277656
L 511.475745 476.277656
L 513.423992 476.277656
L 515.372239 476.277656
L 517.320487 476.277656
L 519.268734 476.277656
L 521.216982 476.277656
L 523.165229 476.277656
L 525.113476 476.277656
L 527.061724 476.277656
L 529.009971 476.277656
L 530.958219 476.277656
L 532.906466 476.277656
L 534.854714 476.277656
L 536.802961 476.277656
L 538.751208 476.277656
L 540.699456 476.277656
L 542.647703 476.277656
L 544.595951 476.277656
L 546.544198 476.277656
L 548.492445 476.277656
L 550.440693 476.277656
L 552.38894 476.277656
L 554.337188 476.277656
L 556.285435 476.277656
L 556.285435 139.042568
L 556.285435 139.042568
L 554.337188 140.233122
L 552.38894 141.423676
L 550.440693 142.61423
L 548.492445 143.804784
L 546.544198 144.995338
L 544.595951 146.185892
L 542.647703 147.376446
L 540.699456 148.567
L 538.751208 149.757554
L 536.802961 150.948108
L 534.854714 152.138662
L 532.906466 153.329216
L 530.958219 154.51977
L 529.009971 155.710324
L 527.061724 156.900878
L 525.113476 158.091432
L 523.165229 159.281986
L 521.216982 160.47254
L 519.268734 161.663094
L 517.320487 162.853648
L 515.372239 164.044203
L 513.423992 165.234757
L 511.475745 166.425311
L 509.527497 167.615865
L 507.57925 168.806419
L 505.631002 169.996973
L 503.682755 171.187527
L 501.734507 172.378081
L 499.78626 173.568635
L 497.838013 174.759189
L 495.889765 175.949743
L 493.941518 177.140297
L 491.99327 178.330851
L 490.045023 179.521405
L 488.096776 180.711959
L 486.148528 181.902513
L 484.200281 183.093067
L 482.252033 184.283621
L 480.303786 185.474175
L 478.355538 186.664729
L 476.407291 187.855283
L 474.459044 189.045837
L 472.510796 190.236391
L 470.562549 191.426945
L 468.614301 192.617499
L 466.666054 193.808053
L 464.717807 194.998607
L 462.769559 196.189161
L 460.821312 197.379715
L 458.873064 198.570269
L 456.924817 199.760823
L 454.976569 200.951377
L 453.028322 202.141931
L 451.080075 203.332485
L 449.131827 204.523039
L 447.18358 205.713593
L 445.235332 206.904147
L 443.287085 208.094701
L 441.338838 209.285255
L 439.39059 210.475809
L 437.442343 211.666363
L 435.494095 212.856917
L 433.545848 214.047471
L 431.5976 215.238025
L 429.649353 216.428579
L 427.701106 217.619133
L 425.752858 218.809687
L 423.804611 220.000241
L 421.856363 221.190795
L 419.908116 222.381349
L 417.959869 223.571903
L 416.011621 224.762457
L 414.063374 225.953011
L 412.115126 227.143565
L 410.166879 228.33412
L 408.218631 229.524674
L 406.270384 230.715228
L 404.322137 231.905782
L 402.373889 233.096336
L 400.425642 234.28689
L 398.477394 235.477444
L 396.529147 236.667998
L 394.5809 237.858552
L 392.632652 239.049106
L 390.684405 240.23966
L 388.736157 241.430214
L 386.78791 242.620768
L 384.839662 243.811322
L 382.891415 245.001876
L 380.943168 246.19243
L 378.99492 247.382984
L 377.046673 248.573538
L 375.098425 249.764092
L 373.150178 250.954646
L 371.201931 252.1452
L 369.253683 253.335754
L 367.305436 254.526308
L 365.357188 255.716862
L 363.408941 256.907416
L 361.460693 258.09797
L 359.512446 259.288524
L 357.564199 260.479078
L 355.615951 261.669632
L 353.667704 262.860186
L 351.719456 264.05074
L 349.771209 265.241294
L 347.822962 266.431848
L 345.874714 267.622402
L 343.926467 268.812956
L 341.978219 270.00351
L 340.029972 271.194064
L 338.081724 272.384618
L 336.133477 273.575172
L 334.18523 274.765726
L 332.236982 275.95628
L 330.288735 277.146834
L 328.340487 278.337388
L 326.39224 279.527942
L 324.443993 280.718496
L 322.495745 281.90905
L 320.547498 283.099604
L 318.59925 284.290158
L 316.651003 285.480712
L 314.702755 286.671266
L 312.754508 287.86182
L 310.806261 289.052374
L 308.858013 290.242928
L 306.909766 291.433482
L 304.961518 292.624036
L 303.013271 293.814591
L 301.065023 295.005145
L 299.116776 296.195699
L 297.168529 297.386253
L 295.220281 298.576807
L 293.272034 299.767361
L 291.323786 300.957915
L 289.375539 302.148469
L 287.427292 303.339023
L 285.479044 304.529577
L 283.530797 305.720131
L 281.582549 306.910685
L 279.634302 308.101239
L 277.686054 309.291793
L 275.737807 310.482347
L 273.78956 311.672901
L 271.841312 312.863455
L 269.893065 314.054009
L 267.944817 315.244563
L 265.99657 316.435117
L 264.048323 317.625671
L 262.100075 318.816225
L 260.151828 320.006779
L 258.20358 321.197333
L 256.255333 322.387887
L 254.307085 323.578441
L 252.358838 324.768995
L 250.410591 325.959549
L 248.462343 327.150103
L 246.514096 328.340657
L 244.565848 329.531211
L 242.617601 330.721765
L 240.669354 331.912319
L 238.721106 333.102873
L 236.772859 334.293427
L 234.824611 335.483981
L 232.876364 336.674535
L 230.928116 337.865089
L 228.979869 339.055643
L 227.031622 340.246197
L 225.083374 341.436751
L 223.135127 342.627305
L 221.186879 343.817859
L 219.238632 345.008413
L 217.290385 346.198967
L 215.342137 347.389521
L 213.39389 348.580075
L 211.445642 349.770629
L 209.497395 350.961183
L 207.549147 352.151737
L 205.6009 353.342291
L 203.652653 354.532845
L 201.704405 355.723399
L 199.756158 356.913953
L 197.80791 358.104508
L 195.859663 359.295062
L 193.911416 360.485616
L 191.963168 361.67617
L 190.014921 362.866724
L 188.066673 364.057278
L 186.118426 365.247832
L 184.170178 366.438386
L 182.221931 367.62894
L 180.273684 368.819494
L 178.325436 370.010048
L 176.377189 371.200602
L 174.428941 372.391156
L 172.480694 373.58171
L 170.532447 374.772264
L 168.584199 375.962818
L 166.635952 377.153372
L 164.687704 378.343926
L 162.739457 379.53448
L 160.791209 380.725034
L 158.842962 381.915588
L 156.894715 383.106142
L 154.946467 384.296696
L 152.99822 385.48725
L 151.049972 386.677804
L 149.101725 387.868358
L 147.153478 389.058912
L 145.20523 390.249466
L 143.256983 391.44002
L 141.308735 392.630574
L 139.360488 393.821128
L 137.41224 395.011682
L 135.463993 396.202236
L 133.515746 397.39279
L 131.567498 398.583344
L 129.619251 399.773898
L 127.671003 400.964452
L 125.722756 402.155006
L 123.774509 403.34556
L 121.826261 404.536114
L 119.878014 405.726668
L 117.929766 406.917222
L 115.981519 408.107776
L 114.033271 409.29833
L 112.085024 410.488884
L 110.136777 411.679438
L 108.188529 412.869992
L 106.240282 414.060546
L 104.292034 415.2511
L 102.343787 416.441654
L 100.39554 417.632208
L 98.447292 418.822762
L 96.499045 420.013316
L 94.550797 421.20387
L 92.60255 422.394424
L 90.654302 423.584979
L 88.706055 424.775533
L 86.757808 425.966087
L 84.80956 427.156641
L 82.861313 428.347195
L 80.913065 429.537749
L 78.964818 430.728303
L 77.016571 431.918857
L 75.068323 433.109411
L 73.120076 434.299965
L 71.171828 435.490519
L 69.223581 436.681073
L 67.275333 437.871627
L 65.327086 439.062181
L 63.378839 440.252735
L 61.430591 441.443289
L 59.482344 442.633843
z
" clip-path="url(#p2e35421854)" style="fill: url(#hec6e411d58); fill-opacity: 0.16"/>
   </g>
   <g id="FillBetweenPolyCollection_2">
    <path d="M 556.285435 139.042568
L 556.285435 476.277656
L 557.650277 476.277656
L 559.015118 476.277656
L 560.379959 476.277656
L 561.744801 476.277656
L 563.109642 476.277656
L 564.474484 476.277656
L 565.839325 476.277656
L 567.204167 476.277656
L 568.569008 476.277656
L 569.933849 476.277656
L 571.298691 476.277656
L 572.663532 476.277656
L 574.028374 476.277656
L 575.393215 476.277656
L 576.758057 476.277656
L 578.122898 476.277656
L 579.487739 476.277656
L 580.852581 476.277656
L 582.217422 476.277656
L 583.582264 476.277656
L 584.947105 476.277656
L 586.311947 476.277656
L 587.676788 476.277656
L 589.04163 476.277656
L 590.406471 476.277656
L 591.771312 476.277656
L 593.136154 476.277656
L 594.500995 476.277656
L 595.865837 476.277656
L 597.230678 476.277656
L 598.59552 476.277656
L 599.960361 476.277656
L 601.325202 476.277656
L 602.690044 476.277656
L 604.054885 476.277656
L 605.419727 476.277656
L 606.784568 476.277656
L 608.14941 476.277656
L 609.514251 476.277656
L 610.879092 476.277656
L 612.243934 476.277656
L 613.608775 476.277656
L 614.973617 476.277656
L 616.338458 476.277656
L 617.7033 476.277656
L 619.068141 476.277656
L 620.432982 476.277656
L 621.797824 476.277656
L 623.162665 476.277656
L 624.527507 476.277656
L 625.892348 476.277656
L 627.25719 476.277656
L 628.622031 476.277656
L 629.986872 476.277656
L 631.351714 476.277656
L 632.716555 476.277656
L 634.081397 476.277656
L 635.446238 476.277656
L 636.81108 476.277656
L 638.175921 476.277656
L 639.540762 476.277656
L 640.905604 476.277656
L 642.270445 476.277656
L 643.635287 476.277656
L 645.000128 476.277656
L 646.36497 476.277656
L 647.729811 476.277656
L 649.094652 476.277656
L 650.459494 476.277656
L 651.824335 476.277656
L 653.189177 476.277656
L 654.554018 476.277656
L 655.91886 476.277656
L 657.283701 476.277656
L 658.648542 476.277656
L 660.013384 476.277656
L 661.378225 476.277656
L 662.743067 476.277656
L 664.107908 476.277656
L 665.47275 476.277656
L 666.837591 476.277656
L 668.202432 476.277656
L 669.567274 476.277656
L 670.932115 476.277656
L 672.296957 476.277656
L 673.661798 476.277656
L 675.02664 476.277656
L 676.391481 476.277656
L 677.756323 476.277656
L 679.121164 476.277656
L 680.486005 476.277656
L 681.850847 476.277656
L 683.215688 476.277656
L 684.58053 476.277656
L 685.945371 476.277656
L 687.310213 476.277656
L 688.675054 476.277656
L 690.039895 476.277656
L 691.404737 476.277656
L 692.769578 476.277656
L 694.13442 476.277656
L 695.499261 476.277656
L 696.864103 476.277656
L 698.228944 476.277656
L 699.593785 476.277656
L 700.958627 476.277656
L 702.323468 476.277656
L 703.68831 476.277656
L 705.053151 476.277656
L 706.417993 476.277656
L 707.782834 476.277656
L 709.147675 476.277656
L 710.512517 476.277656
L 711.877358 476.277656
L 713.2422 476.277656
L 714.607041 476.277656
L 715.971883 476.277656
L 717.336724 476.277656
L 718.701565 476.277656
L 720.066407 476.277656
L 721.431248 476.277656
L 722.79609 476.277656
L 724.160931 476.277656
L 725.525773 476.277656
L 726.890614 476.277656
L 728.255455 476.277656
L 729.620297 476.277656
L 730.985138 476.277656
L 732.34998 476.277656
L 733.714821 476.277656
L 735.079663 476.277656
L 736.444504 476.277656
L 737.809345 476.277656
L 739.174187 476.277656
L 740.539028 476.277656
L 741.90387 476.277656
L 743.268711 476.277656
L 744.633553 476.277656
L 745.998394 476.277656
L 747.363235 476.277656
L 748.728077 476.277656
L 750.092918 476.277656
L 751.45776 476.277656
L 752.822601 476.277656
L 754.187443 476.277656
L 755.552284 476.277656
L 756.917125 476.277656
L 758.281967 476.277656
L 759.646808 476.277656
L 761.01165 476.277656
L 762.376491 476.277656
L 763.741333 476.277656
L 765.106174 476.277656
L 766.471015 476.277656
L 767.835857 476.277656
L 769.200698 476.277656
L 770.56554 476.277656
L 771.930381 476.277656
L 773.295223 476.277656
L 774.660064 476.277656
L 776.024906 476.277656
L 777.389747 476.277656
L 778.754588 476.277656
L 780.11943 476.277656
L 781.484271 476.277656
L 782.849113 476.277656
L 784.213954 476.277656
L 785.578796 476.277656
L 786.943637 476.277656
L 788.308478 476.277656
L 789.67332 476.277656
L 791.038161 476.277656
L 792.403003 476.277656
L 793.767844 476.277656
L 795.132686 476.277656
L 796.497527 476.277656
L 797.862368 476.277656
L 799.22721 476.277656
L 800.592051 476.277656
L 801.956893 476.277656
L 803.321734 476.277656
L 804.686576 476.277656
L 806.051417 476.277656
L 807.416258 476.277656
L 808.7811 476.277656
L 810.145941 476.277656
L 811.510783 476.277656
L 812.875624 476.277656
L 814.240466 476.277656
L 815.605307 476.277656
L 816.970148 476.277656
L 818.33499 476.277656
L 819.699831 476.277656
L 821.064673 476.277656
L 822.429514 476.277656
L 823.794356 476.277656
L 825.159197 476.277656
L 826.524038 476.277656
L 827.88888 476.277656
L 829.253721 476.277656
L 830.618563 476.277656
L 831.983404 476.277656
L 833.348246 476.277656
L 834.713087 476.277656
L 836.077928 476.277656
L 837.44277 476.277656
L 838.807611 476.277656
L 840.172453 476.277656
L 841.537294 476.277656
L 842.902136 476.277656
L 844.266977 476.277656
L 845.631818 476.277656
L 846.99666 476.277656
L 848.361501 476.277656
L 849.726343 476.277656
L 851.091184 476.277656
L 852.456026 476.277656
L 853.820867 476.277656
L 855.185708 476.277656
L 856.55055 476.277656
L 857.915391 476.277656
L 859.280233 476.277656
L 860.645074 476.277656
L 862.009916 476.277656
L 863.374757 476.277656
L 864.739599 476.277656
L 866.10444 476.277656
L 867.469281 476.277656
L 868.834123 476.277656
L 870.198964 476.277656
L 871.563806 476.277656
L 872.928647 476.277656
L 874.293489 476.277656
L 875.65833 476.277656
L 877.023171 476.277656
L 878.388013 476.277656
L 879.752854 476.277656
L 881.117696 476.277656
L 882.482537 476.277656
L 883.847379 476.277656
L 885.21222 476.277656
L 886.577061 476.277656
L 887.941903 476.277656
L 889.306744 476.277656
L 890.671586 476.277656
L 892.036427 476.277656
L 893.401269 476.277656
L 894.76611 476.277656
L 896.130951 476.277656
L 897.495793 476.277656
L 898.860634 476.277656
L 900.225476 476.277656
L 901.590317 476.277656
L 902.955159 476.277656
L 904.32 476.277656
L 904.32 139.042568
L 904.32 139.042568
L 902.955159 139.042568
L 901.590317 139.042568
L 900.225476 139.042568
L 898.860634 139.042568
L 897.495793 139.042568
L 896.130951 139.042568
L 894.76611 139.042568
L 893.401269 139.042568
L 892.036427 139.042568
L 890.671586 139.042568
L 889.306744 139.042568
L 887.941903 139.042568
L 886.577061 139.042568
L 885.21222 139.042568
L 883.847379 139.042568
L 882.482537 139.042568
L 881.117696 139.042568
L 879.752854 139.042568
L 878.388013 139.042568
L 877.023171 139.042568
L 875.65833 139.042568
L 874.293489 139.042568
L 872.928647 139.042568
L 871.563806 139.042568
L 870.198964 139.042568
L 868.834123 139.042568
L 867.469281 139.042568
L 866.10444 139.042568
L 864.739599 139.042568
L 863.374757 139.042568
L 862.009916 139.042568
L 860.645074 139.042568
L 859.280233 139.042568
L 857.915391 139.042568
L 856.55055 139.042568
L 855.185708 139.042568
L 853.820867 139.042568
L 852.456026 139.042568
L 851.091184 139.042568
L 849.726343 139.042568
L 848.361501 139.042568
L 846.99666 139.042568
L 845.631818 139.042568
L 844.266977 139.042568
L 842.902136 139.042568
L 841.537294 139.042568
L 840.172453 139.042568
L 838.807611 139.042568
L 837.44277 139.042568
L 836.077928 139.042568
L 834.713087 139.042568
L 833.348246 139.042568
L 831.983404 139.042568
L 830.618563 139.042568
L 829.253721 139.042568
L 827.88888 139.042568
L 826.524038 139.042568
L 825.159197 139.042568
L 823.794356 139.042568
L 822.429514 139.042568
L 821.064673 139.042568
L 819.699831 139.042568
L 818.33499 139.042568
L 816.970148 139.042568
L 815.605307 139.042568
L 814.240466 139.042568
L 812.875624 139.042568
L 811.510783 139.042568
L 810.145941 139.042568
L 808.7811 139.042568
L 807.416258 139.042568
L 806.051417 139.042568
L 804.686576 139.042568
L 803.321734 139.042568
L 801.956893 139.042568
L 800.592051 139.042568
L 799.22721 139.042568
L 797.862368 139.042568
L 796.497527 139.042568
L 795.132686 139.042568
L 793.767844 139.042568
L 792.403003 139.042568
L 791.038161 139.042568
L 789.67332 139.042568
L 788.308478 139.042568
L 786.943637 139.042568
L 785.578796 139.042568
L 784.213954 139.042568
L 782.849113 139.042568
L 781.484271 139.042568
L 780.11943 139.042568
L 778.754588 139.042568
L 777.389747 139.042568
L 776.024906 139.042568
L 774.660064 139.042568
L 773.295223 139.042568
L 771.930381 139.042568
L 770.56554 139.042568
L 769.200698 139.042568
L 767.835857 139.042568
L 766.471015 139.042568
L 765.106174 139.042568
L 763.741333 139.042568
L 762.376491 139.042568
L 761.01165 139.042568
L 759.646808 139.042568
L 758.281967 139.042568
L 756.917125 139.042568
L 755.552284 139.042568
L 754.187443 139.042568
L 752.822601 139.042568
L 751.45776 139.042568
L 750.092918 139.042568
L 748.728077 139.042568
L 747.363235 139.042568
L 745.998394 139.042568
L 744.633553 139.042568
L 743.268711 139.042568
L 741.90387 139.042568
L 740.539028 139.042568
L 739.174187 139.042568
L 737.809345 139.042568
L 736.444504 139.042568
L 735.079663 139.042568
L 733.714821 139.042568
L 732.34998 139.042568
L 730.985138 139.042568
L 729.620297 139.042568
L 728.255455 139.042568
L 726.890614 139.042568
L 725.525773 139.042568
L 724.160931 139.042568
L 722.79609 139.042568
L 721.431248 139.042568
L 720.066407 139.042568
L 718.701565 139.042568
L 717.336724 139.042568
L 715.971883 139.042568
L 714.607041 139.042568
L 713.2422 139.042568
L 711.877358 139.042568
L 710.512517 139.042568
L 709.147675 139.042568
L 707.782834 139.042568
L 706.417993 139.042568
L 705.053151 139.042568
L 703.68831 139.042568
L 702.323468 139.042568
L 700.958627 139.042568
L 699.593785 139.042568
L 698.228944 139.042568
L 696.864103 139.042568
L 695.499261 139.042568
L 694.13442 139.042568
L 692.769578 139.042568
L 691.404737 139.042568
L 690.039895 139.042568
L 688.675054 139.042568
L 687.310213 139.042568
L 685.945371 139.042568
L 684.58053 139.042568
L 683.215688 139.042568
L 681.850847 139.042568
L 680.486005 139.042568
L 679.121164 139.042568
L 677.756323 139.042568
L 676.391481 139.042568
L 675.02664 139.042568
L 673.661798 139.042568
L 672.296957 139.042568
L 670.932115 139.042568
L 669.567274 139.042568
L 668.202432 139.042568
L 666.837591 139.042568
L 665.47275 139.042568
L 664.107908 139.042568
L 662.743067 139.042568
L 661.378225 139.042568
L 660.013384 139.042568
L 658.648542 139.042568
L 657.283701 139.042568
L 655.91886 139.042568
L 654.554018 139.042568
L 653.189177 139.042568
L 651.824335 139.042568
L 650.459494 139.042568
L 649.094652 139.042568
L 647.729811 139.042568
L 646.36497 139.042568
L 645.000128 139.042568
L 643.635287 139.042568
L 642.270445 139.042568
L 640.905604 139.042568
L 639.540762 139.042568
L 638.175921 139.042568
L 636.81108 139.042568
L 635.446238 139.042568
L 634.081397 139.042568
L 632.716555 139.042568
L 631.351714 139.042568
L 629.986872 139.042568
L 628.622031 139.042568
L 627.25719 139.042568
L 625.892348 139.042568
L 624.527507 139.042568
L 623.162665 139.042568
L 621.797824 139.042568
L 620.432982 139.042568
L 619.068141 139.042568
L 617.7033 139.042568
L 616.338458 139.042568
L 614.973617 139.042568
L 613.608775 139.042568
L 612.243934 139.042568
L 610.879092 139.042568
L 609.514251 139.042568
L 608.14941 139.042568
L 606.784568 139.042568
L 605.419727 139.042568
L 604.054885 139.042568
L 602.690044 139.042568
L 601.325202 139.042568
L 599.960361 139.042568
L 598.59552 139.042568
L 597.230678 139.042568
L 595.865837 139.042568
L 594.500995 139.042568
L 593.136154 139.042568
L 591.771312 139.042568
L 590.406471 139.042568
L 589.04163 139.042568
L 587.676788 139.042568
L 586.311947 139.042568
L 584.947105 139.042568
L 583.582264 139.042568
L 582.217422 139.042568
L 580.852581 139.042568
L 579.487739 139.042568
L 578.122898 139.042568
L 576.758057 139.042568
L 575.393215 139.042568
L 574.028374 139.042568
L 572.663532 139.042568
L 571.298691 139.042568
L 569.933849 139.042568
L 568.569008 139.042568
L 567.204167 139.042568
L 565.839325 139.042568
L 564.474484 139.042568
L 563.109642 139.042568
L 561.744801 139.042568
L 560.379959 139.042568
L 559.015118 139.042568
L 557.650277 139.042568
L 556.285435 139.042568
z
" clip-path="url(#p2e35421854)" style="fill: url(#h4ad9ccf411); fill-opacity: 0.16"/>
   </g>
   <g id="matplotlib.axis_1">
    <g id="xtick_1">
     <g id="line2d_1">
      <path d="M 59.482344 476.277656
L 59.482344 36.32
" clip-path="url(#p2e35421854)" style="fill: none; stroke: #d1d5db; stroke-width: 0.8; stroke-linecap: square"/>
     </g>
     <g id="line2d_2">
      <defs>
       <path id="m6ead6709e6" d="M 0 0
L 0 3.5
" style="stroke: #000000; stroke-width: 0.8"/>
      </defs>
      <g>
       <use xlink:href="#m6ead6709e6" x="59.482344" y="476.277656" style="stroke: #000000; stroke-width: 0.8"/>
      </g>
     </g>
     <g id="text_1">
      <text style="font-size: 10px; font-family: 'DejaVu Sans', 'Bitstream Vera Sans', 'Computer Modern Sans Serif', 'Lucida Grande', 'Verdana', 'Geneva', 'Lucid', 'Arial', 'Helvetica', 'Avant Garde', sans-serif; text-anchor: middle" x="59.482344" y="490.875313" transform="rotate(-0 59.482344 490.875313)">100m</text>
     </g>
    </g>
    <g id="xtick_2">
     <g id="line2d_3">
      <path d="M 481.901172 476.277656
L 481.901172 36.32
" clip-path="url(#p2e35421854)" style="fill: none; stroke: #d1d5db; stroke-width: 0.8; stroke-linecap: square"/>
     </g>
     <g id="line2d_4">
      <g>
       <use xlink:href="#m6ead6709e6" x="481.901172" y="476.277656" style="stroke: #000000; stroke-width: 0.8"/>
      </g>
     </g>
     <g id="text_2">
      <text style="font-size: 10px; font-family: 'DejaVu Sans', 'Bitstream Vera Sans', 'Computer Modern Sans Serif', 'Lucida Grande', 'Verdana', 'Geneva', 'Lucid', 'Arial', 'Helvetica', 'Avant Garde', sans-serif; text-anchor: middle" x="481.901172" y="490.875313" transform="rotate(-0 481.901172 490.875313)">1</text>
     </g>
    </g>
    <g id="xtick_3">
     <g id="line2d_5">
      <path d="M 904.32 476.277656
L 904.32 36.32
" clip-path="url(#p2e35421854)" style="fill: none; stroke: #d1d5db; stroke-width: 0.8; stroke-linecap: square"/>
     </g>
     <g id="line2d_6">
      <g>
       <use xlink:href="#m6ead6709e6" x="904.32" y="476.277656" style="stroke: #000000; stroke-width: 0.8"/>
      </g>
     </g>
     <g id="text_3">
      <text style="font-size: 10px; font-family: 'DejaVu Sans', 'Bitstream Vera Sans', 'Computer Modern Sans Serif', 'Lucida Grande', 'Verdana', 'Geneva', 'Lucid', 'Arial', 'Helvetica', 'Avant Garde', sans-serif; text-anchor: middle" x="904.32" y="490.875313" transform="rotate(-0 904.32 490.875313)">10</text>
     </g>
    </g>
    <g id="xtick_4">
     <g id="line2d_7">
      <path d="M 186.643082 476.277656
L 186.643082 36.32
" clip-path="url(#p2e35421854)" style="fill: none; stroke: #e5e7eb; stroke-opacity: 0.7; stroke-width: 0.45; stroke-linecap: square"/>
     </g>
     <g id="line2d_8">
      <defs>
       <path id="mf09dcce5c0" d="M 0 0
L 0 2
" style="stroke: #000000; stroke-width: 0.6"/>
      </defs>
      <g>
       <use xlink:href="#mf09dcce5c0" x="186.643082" y="476.277656" style="stroke: #000000; stroke-width: 0.6"/>
      </g>
     </g>
    </g>
    <g id="xtick_5">
     <g id="line2d_9">
      <path d="M 261.027345 476.277656
L 261.027345 36.32
" clip-path="url(#p2e35421854)" style="fill: none; stroke: #e5e7eb; stroke-opacity: 0.7; stroke-width: 0.45; stroke-linecap: square"/>
     </g>
     <g id="line2d_10">
      <g>
       <use xlink:href="#mf09dcce5c0" x="261.027345" y="476.277656" style="stroke: #000000; stroke-width: 0.6"/>
      </g>
     </g>
    </g>
    <g id="xtick_6">
     <g id="line2d_11">
      <path d="M 313.80382 476.277656
L 313.80382 36.32
" clip-path="url(#p2e35421854)" style="fill: none; stroke: #e5e7eb; stroke-opacity: 0.7; stroke-width: 0.45; stroke-linecap: square"/>
     </g>
     <g id="line2d_12">
      <g>
       <use xlink:href="#mf09dcce5c0" x="313.80382" y="476.277656" style="stroke: #000000; stroke-width: 0.6"/>
      </g>
     </g>
    </g>
    <g id="xtick_7">
     <g id="line2d_13">
      <path d="M 354.740434 476.277656
L 354.740434 36.32
" clip-path="url(#p2e35421854)" style="fill: none; stroke: #e5e7eb; stroke-opacity: 0.7; stroke-width: 0.45; stroke-linecap: square"/>
     </g>
     <g id="line2d_14">
      <g>
       <use xlink:href="#mf09dcce5c0" x="354.740434" y="476.277656" style="stroke: #000000; stroke-width: 0.6"/>
      </g>
     </g>
    </g>
    <g id="xtick_8">
     <g id="line2d_15">
      <path d="M 388.188083 476.277656
L 388.188083 36.32
" clip-path="url(#p2e35421854)" style="fill: none; stroke: #e5e7eb; stroke-opacity: 0.7; stroke-width: 0.45; stroke-linecap: square"/>
     </g>
     <g id="line2d_16">
      <g>
       <use xlink:href="#mf09dcce5c0" x="388.188083" y="476.277656" style="stroke: #000000; stroke-width: 0.6"/>
      </g>
     </g>
    </g>
    <g id="xtick_9">
     <g id="line2d_17">
      <path d="M 416.467667 476.277656
L 416.467667 36.32
" clip-path="url(#p2e35421854)" style="fill: none; stroke: #e5e7eb; stroke-opacity: 0.7; stroke-width: 0.45; stroke-linecap: square"/>
     </g>
     <g id="line2d_18">
      <g>
       <use xlink:href="#mf09dcce5c0" x="416.467667" y="476.277656" style="stroke: #000000; stroke-width: 0.6"/>
      </g>
     </g>
    </g>
    <g id="xtick_10">
     <g id="line2d_19">
      <path d="M 440.964558 476.277656
L 440.964558 36.32
" clip-path="url(#p2e35421854)" style="fill: none; stroke: #e5e7eb; stroke-opacity: 0.7; stroke-width: 0.45; stroke-linecap: square"/>
     </g>
     <g id="line2d_20">
      <g>
       <use xlink:href="#mf09dcce5c0" x="440.964558" y="476.277656" style="stroke: #000000; stroke-width: 0.6"/>
      </g>
     </g>
    </g>
    <g id="xtick_11">
     <g id="line2d_21">
      <path d="M 462.572346 476.277656
L 462.572346 36.32
" clip-path="url(#p2e35421854)" style="fill: none; stroke: #e5e7eb; stroke-opacity: 0.7; stroke-width: 0.45; stroke-linecap: square"/>
     </g>
     <g id="line2d_22">
      <g>
       <use xlink:href="#mf09dcce5c0" x="462.572346" y="476.277656" style="stroke: #000000; stroke-width: 0.6"/>
      </g>
     </g>
    </g>
    <g id="xtick_12">
     <g id="line2d_23">
      <path d="M 609.06191 476.277656
L 609.06191 36.32
" clip-path="url(#p2e35421854)" style="fill: none; stroke: #e5e7eb; stroke-opacity: 0.7; stroke-width: 0.45; stroke-linecap: square"/>
     </g>
     <g id="line2d_24">
      <g>
       <use xlink:href="#mf09dcce5c0" x="609.06191" y="476.277656" style="stroke: #000000; stroke-width: 0.6"/>
      </g>
     </g>
    </g>
    <g id="xtick_13">
     <g id="line2d_25">
      <path d="M 683.446173 476.277656
L 683.446173 36.32
" clip-path="url(#p2e35421854)" style="fill: none; stroke: #e5e7eb; stroke-opacity: 0.7; stroke-width: 0.45; stroke-linecap: square"/>
     </g>
     <g id="line2d_26">
      <g>
       <use xlink:href="#mf09dcce5c0" x="683.446173" y="476.277656" style="stroke: #000000; stroke-width: 0.6"/>
      </g>
     </g>
    </g>
    <g id="xtick_14">
     <g id="line2d_27">
      <path d="M 736.222648 476.277656
L 736.222648 36.32
" clip-path="url(#p2e35421854)" style="fill: none; stroke: #e5e7eb; stroke-opacity: 0.7; stroke-width: 0.45; stroke-linecap: square"/>
     </g>
     <g id="line2d_28">
      <g>
       <use xlink:href="#mf09dcce5c0" x="736.222648" y="476.277656" style="stroke: #000000; stroke-width: 0.6"/>
      </g>
     </g>
    </g>
    <g id="xtick_15">
     <g id="line2d_29">
      <path d="M 777.159262 476.277656
L 777.159262 36.32
" clip-path="url(#p2e35421854)" style="fill: none; stroke: #e5e7eb; stroke-opacity: 0.7; stroke-width: 0.45; stroke-linecap: square"/>
     </g>
     <g id="line2d_30">
      <g>
       <use xlink:href="#mf09dcce5c0" x="777.159262" y="476.277656" style="stroke: #000000; stroke-width: 0.6"/>
      </g>
     </g>
    </g>
    <g id="xtick_16">
     <g id="line2d_31">
      <path d="M 810.606911 476.277656
L 810.606911 36.32
" clip-path="url(#p2e35421854)" style="fill: none; stroke: #e5e7eb; stroke-opacity: 0.7; stroke-width: 0.45; stroke-linecap: square"/>
     </g>
     <g id="line2d_32">
      <g>
       <use xlink:href="#mf09dcce5c0" x="810.606911" y="476.277656" style="stroke: #000000; stroke-width: 0.6"/>
      </g>
     </g>
    </g>
    <g id="xtick_17">
     <g id="line2d_33">
      <path d="M 838.886496 476.277656
L 838.886496 36.32
" clip-path="url(#p2e35421854)" style="fill: none; stroke: #e5e7eb; stroke-opacity: 0.7; stroke-width: 0.45; stroke-linecap: square"/>
     </g>
     <g id="line2d_34">
      <g>
       <use xlink:href="#mf09dcce5c0" x="838.886496" y="476.277656" style="stroke: #000000; stroke-width: 0.6"/>
      </g>
     </g>
    </g>
    <g id="xtick_18">
     <g id="line2d_35">
      <path d="M 863.383386 476.277656
L 863.383386 36.32
" clip-path="url(#p2e35421854)" style="fill: none; stroke: #e5e7eb; stroke-opacity: 0.7; stroke-width: 0.45; stroke-linecap: square"/>
     </g>
     <g id="line2d_36">
      <g>
       <use xlink:href="#mf09dcce5c0" x="863.383386" y="476.277656" style="stroke: #000000; stroke-width: 0.6"/>
      </g>
     </g>
    </g>
    <g id="xtick_19">
     <g id="line2d_37">
      <path d="M 884.991174 476.277656
L 884.991174 36.32
" clip-path="url(#p2e35421854)" style="fill: none; stroke: #e5e7eb; stroke-opacity: 0.7; stroke-width: 0.45; stroke-linecap: square"/>
     </g>
     <g id="line2d_38">
      <g>
       <use xlink:href="#mf09dcce5c0" x="884.991174" y="476.277656" style="stroke: #000000; stroke-width: 0.6"/>
      </g>
     </g>
    </g>
    <g id="text_4">
     <text style="font-size: 10px; font-family: 'DejaVu Sans', 'Bitstream Vera Sans', 'Computer Modern Sans Serif', 'Lucida Grande', 'Verdana', 'Geneva', 'Lucid', 'Arial', 'Helvetica', 'Avant Garde', sans-serif; text-anchor: middle" x="481.901172" y="504.876094" transform="rotate(-0 481.901172 504.876094)">Arithmetic Intensity (FLOP/Byte)</text>
    </g>
   </g>
   <g id="matplotlib.axis_2">
    <g id="ytick_1">
     <g id="line2d_39">
      <path d="M 59.482344 417.617898
L 904.32 417.617898
" clip-path="url(#p2e35421854)" style="fill: none; stroke: #d1d5db; stroke-width: 0.8; stroke-linecap: square"/>
     </g>
     <g id="line2d_40">
      <defs>
       <path id="m163957820f" d="M 0 0
L -3.5 0
" style="stroke: #000000; stroke-width: 0.8"/>
      </defs>
      <g>
       <use xlink:href="#m163957820f" x="59.482344" y="417.617898" style="stroke: #000000; stroke-width: 0.8"/>
      </g>
     </g>
     <g id="text_5">
      <text style="font-size: 10px; font-family: 'DejaVu Sans', 'Bitstream Vera Sans', 'Computer Modern Sans Serif', 'Lucida Grande', 'Verdana', 'Geneva', 'Lucid', 'Arial', 'Helvetica', 'Avant Garde', sans-serif; text-anchor: end" x="52.482344" y="421.416726" transform="rotate(-0 52.482344 421.416726)">100G</text>
     </g>
    </g>
    <g id="ytick_2">
     <g id="line2d_41">
      <path d="M 59.482344 159.482084
L 904.32 159.482084
" clip-path="url(#p2e35421854)" style="fill: none; stroke: #d1d5db; stroke-width: 0.8; stroke-linecap: square"/>
     </g>
     <g id="line2d_42">
      <g>
       <use xlink:href="#m163957820f" x="59.482344" y="159.482084" style="stroke: #000000; stroke-width: 0.8"/>
      </g>
     </g>
     <g id="text_6">
      <text style="font-size: 10px; font-family: 'DejaVu Sans', 'Bitstream Vera Sans', 'Computer Modern Sans Serif', 'Lucida Grande', 'Verdana', 'Geneva', 'Lucid', 'Arial', 'Helvetica', 'Avant Garde', sans-serif; text-anchor: end" x="52.482344" y="163.280912" transform="rotate(-0 52.482344 163.280912)">1T</text>
     </g>
    </g>
    <g id="ytick_3">
     <g id="line2d_43">
      <path d="M 59.482344 474.885005
L 904.32 474.885005
" clip-path="url(#p2e35421854)" style="fill: none; stroke: #e5e7eb; stroke-opacity: 0.7; stroke-width: 0.45; stroke-linecap: square"/>
     </g>
     <g id="line2d_44">
      <defs>
       <path id="md595594894" d="M 0 0
L -2 0
" style="stroke: #000000; stroke-width: 0.6"/>
      </defs>
      <g>
       <use xlink:href="#md595594894" x="59.482344" y="474.885005" style="stroke: #000000; stroke-width: 0.6"/>
      </g>
     </g>
    </g>
    <g id="ytick_4">
     <g id="line2d_45">
      <path d="M 59.482344 457.603641
L 904.32 457.603641
" clip-path="url(#p2e35421854)" style="fill: none; stroke: #e5e7eb; stroke-opacity: 0.7; stroke-width: 0.45; stroke-linecap: square"/>
     </g>
     <g id="line2d_46">
      <g>
       <use xlink:href="#md595594894" x="59.482344" y="457.603641" style="stroke: #000000; stroke-width: 0.6"/>
      </g>
     </g>
    </g>
    <g id="ytick_5">
     <g id="line2d_47">
      <path d="M 59.482344 442.633843
L 904.32 442.633843
" clip-path="url(#p2e35421854)" style="fill: none; stroke: #e5e7eb; stroke-opacity: 0.7; stroke-width: 0.45; stroke-linecap: square"/>
     </g>
     <g id="line2d_48">
      <g>
       <use xlink:href="#md595594894" x="59.482344" y="442.633843" style="stroke: #000000; stroke-width: 0.6"/>
      </g>
     </g>
    </g>
    <g id="ytick_6">
     <g id="line2d_49">
      <path d="M 59.482344 429.429545
L 904.32 429.429545
" clip-path="url(#p2e35421854)" style="fill: none; stroke: #e5e7eb; stroke-opacity: 0.7; stroke-width: 0.45; stroke-linecap: square"/>
     </g>
     <g id="line2d_50">
      <g>
       <use xlink:href="#md595594894" x="59.482344" y="429.429545" style="stroke: #000000; stroke-width: 0.6"/>
      </g>
     </g>
    </g>
    <g id="ytick_7">
     <g id="line2d_51">
      <path d="M 59.482344 339.911275
L 904.32 339.911275
" clip-path="url(#p2e35421854)" style="fill: none; stroke: #e5e7eb; stroke-opacity: 0.7; stroke-width: 0.45; stroke-linecap: square"/>
     </g>
     <g id="line2d_52">
      <g>
       <use xlink:href="#md595594894" x="59.482344" y="339.911275" style="stroke: #000000; stroke-width: 0.6"/>
      </g>
     </g>
    </g>
    <g id="ytick_8">
     <g id="line2d_53">
      <path d="M 59.482344 294.455814
L 904.32 294.455814
" clip-path="url(#p2e35421854)" style="fill: none; stroke: #e5e7eb; stroke-opacity: 0.7; stroke-width: 0.45; stroke-linecap: square"/>
     </g>
     <g id="line2d_54">
      <g>
       <use xlink:href="#md595594894" x="59.482344" y="294.455814" style="stroke: #000000; stroke-width: 0.6"/>
      </g>
     </g>
    </g>
    <g id="ytick_9">
     <g id="line2d_55">
      <path d="M 59.482344 262.204652
L 904.32 262.204652
" clip-path="url(#p2e35421854)" style="fill: none; stroke: #e5e7eb; stroke-opacity: 0.7; stroke-width: 0.45; stroke-linecap: square"/>
     </g>
     <g id="line2d_56">
      <g>
       <use xlink:href="#md595594894" x="59.482344" y="262.204652" style="stroke: #000000; stroke-width: 0.6"/>
      </g>
     </g>
    </g>
    <g id="ytick_10">
     <g id="line2d_57">
      <path d="M 59.482344 237.188707
L 904.32 237.188707
" clip-path="url(#p2e35421854)" style="fill: none; stroke: #e5e7eb; stroke-opacity: 0.7; stroke-width: 0.45; stroke-linecap: square"/>
     </g>
     <g id="line2d_58">
      <g>
       <use xlink:href="#md595594894" x="59.482344" y="237.188707" style="stroke: #000000; stroke-width: 0.6"/>
      </g>
     </g>
    </g>
    <g id="ytick_11">
     <g id="line2d_59">
      <path d="M 59.482344 216.749191
L 904.32 216.749191
" clip-path="url(#p2e35421854)" style="fill: none; stroke: #e5e7eb; stroke-opacity: 0.7; stroke-width: 0.45; stroke-linecap: square"/>
     </g>
     <g id="line2d_60">
      <g>
       <use xlink:href="#md595594894" x="59.482344" y="216.749191" style="stroke: #000000; stroke-width: 0.6"/>
      </g>
     </g>
    </g>
    <g id="ytick_12">
     <g id="line2d_61">
      <path d="M 59.482344 199.467827
L 904.32 199.467827
" clip-path="url(#p2e35421854)" style="fill: none; stroke: #e5e7eb; stroke-opacity: 0.7; stroke-width: 0.45; stroke-linecap: square"/>
     </g>
     <g id="line2d_62">
      <g>
       <use xlink:href="#md595594894" x="59.482344" y="199.467827" style="stroke: #000000; stroke-width: 0.6"/>
      </g>
     </g>
    </g>
    <g id="ytick_13">
     <g id="line2d_63">
      <path d="M 59.482344 184.498029
L 904.32 184.498029
" clip-path="url(#p2e35421854)" style="fill: none; stroke: #e5e7eb; stroke-opacity: 0.7; stroke-width: 0.45; stroke-linecap: square"/>
     </g>
     <g id="line2d_64">
      <g>
       <use xlink:href="#md595594894" x="59.482344" y="184.498029" style="stroke: #000000; stroke-width: 0.6"/>
      </g>
     </g>
    </g>
    <g id="ytick_14">
     <g id="line2d_65">
      <path d="M 59.482344 171.293731
L 904.32 171.293731
" clip-path="url(#p2e35421854)" style="fill: none; stroke: #e5e7eb; stroke-opacity: 0.7; stroke-width: 0.45; stroke-linecap: square"/>
     </g>
     <g id="line2d_66">
      <g>
       <use xlink:href="#md595594894" x="59.482344" y="171.293731" style="stroke: #000000; stroke-width: 0.6"/>
      </g>
     </g>
    </g>
    <g id="ytick_15">
     <g id="line2d_67">
      <path d="M 59.482344 81.775461
L 904.32 81.775461
" clip-path="url(#p2e35421854)" style="fill: none; stroke: #e5e7eb; stroke-opacity: 0.7; stroke-width: 0.45; stroke-linecap: square"/>
     </g>
     <g id="line2d_68">
      <g>
       <use xlink:href="#md595594894" x="59.482344" y="81.775461" style="stroke: #000000; stroke-width: 0.6"/>
      </g>
     </g>
    </g>
    <g id="ytick_16">
     <g id="line2d_69">
      <path d="M 59.482344 36.32
L 904.32 36.32
" clip-path="url(#p2e35421854)" style="fill: none; stroke: #e5e7eb; stroke-opacity: 0.7; stroke-width: 0.45; stroke-linecap: square"/>
     </g>
     <g id="line2d_70">
      <g>
       <use xlink:href="#md595594894" x="59.482344" y="36.32" style="stroke: #000000; stroke-width: 0.6"/>
      </g>
     </g>
    </g>
    <g id="text_7">
     <text style="font-size: 10px; font-family: 'DejaVu Sans', 'Bitstream Vera Sans', 'Computer Modern Sans Serif', 'Lucida Grande', 'Verdana', 'Geneva', 'Lucid', 'Arial', 'Helvetica', 'Avant Garde', sans-serif; text-anchor: middle" x="19.244063" y="256.298828" transform="rotate(-90 19.244063 256.298828)">Attainable Performance (FLOP/s)</text>
    </g>
   </g>
   <g id="line2d_71">
    <path d="M 59.482344 442.633843
L 555.47314 139.538953
L 557.126443 139.042568
L 904.32 139.042568
L 904.32 139.042568
" clip-path="url(#p2e35421854)" style="fill: none; stroke: #0072b2; stroke-width: 2.2; stroke-linecap: square"/>
   </g>
   <g id="patch_3">
    <path d="M 59.482344 476.277656
L 59.482344 36.32
" style="fill: none; stroke: #000000; stroke-width: 0.8; stroke-linejoin: miter; stroke-linecap: square"/>
   </g>
   <g id="patch_4">
    <path d="M 904.32 476.277656
L 904.32 36.32
" style="fill: none; stroke: #000000; stroke-width: 0.8; stroke-linejoin: miter; stroke-linecap: square"/>
   </g>
   <g id="patch_5">
    <path d="M 59.482344 476.277656
L 904.32 476.277656
" style="fill: none; stroke: #000000; stroke-width: 0.8; stroke-linejoin: miter; stroke-linecap: square"/>
   </g>
   <g id="patch_6">
    <path d="M 59.482344 36.32
L 904.32 36.32
" style="fill: none; stroke: #000000; stroke-width: 0.8; stroke-linejoin: miter; stroke-linecap: square"/>
   </g>
   <g id="text_8">
    <text style="font-size: 15px; font-family: 'DejaVu Sans', 'Bitstream Vera Sans', 'Computer Modern Sans Serif', 'Lucida Grande', 'Verdana', 'Geneva', 'Lucid', 'Arial', 'Helvetica', 'Avant Garde', sans-serif; text-anchor: middle" x="481.901172" y="22.32" transform="rotate(-0 481.901172 22.32)">roofp</text>
   </g>
   <g id="PathCollection_1">
    <defs>
     <path id="mda15e7976f" d="M 0 3
C 0.795609 3 1.55874 2.683901 2.12132 2.12132
C 2.683901 1.55874 3 0.795609 3 0
C 3 -0.795609 2.683901 -1.55874 2.12132 -2.12132
C 1.55874 -2.683901 0.795609 -3 0 -3
C -0.795609 -3 -1.55874 -2.683901 -2.12132 -2.12132
C -2.683901 -1.55874 -3 -0.795609 -3 0
C -3 0.795609 -2.683901 1.55874 -2.12132 2.12132
C -1.55874 2.683901 -0.795609 3 0 3
z
" style="stroke: #ffffff; stroke-width: 0.8"/>
    </defs>
    <g clip-path="url(#p2e35421854)">
     <use xlink:href="#mda15e7976f" x="556.285435" y="139.042568" style="fill: #0072b2; stroke: #ffffff; stroke-width: 0.8"/>
    </g>
   </g>
   <g id="legend_1">
    <g id="patch_7">
     <path d="M 702.86375 471.277656
L 897.32 471.277656
Q 899.32 471.277656 899.32 469.277656
L 899.32 425.275312
Q 899.32 423.275312 897.32 423.275312
L 702.86375 423.275312
Q 700.86375 423.275312 700.86375 425.275312
L 700.86375 469.277656
Q 700.86375 471.277656 702.86375 471.277656
z
" style="fill: #ffffff; opacity: 0.8; stroke: #cccccc; stroke-linejoin: miter"/>
    </g>
    <g id="line2d_72">
     <path d="M 704.86375 431.37375
L 714.86375 431.37375
L 724.86375 431.37375
" style="fill: none; stroke: #0072b2; stroke-width: 2.2; stroke-linecap: square"/>
    </g>
    <g id="text_9">
     <text style="font-size: 10px; font-family: 'DejaVu Sans', 'Bitstream Vera Sans', 'Computer Modern Sans Serif', 'Lucida Grande', 'Verdana', 'Geneva', 'Lucid', 'Arial', 'Helvetica', 'Avant Garde', sans-serif; text-anchor: start" x="732.86375" y="434.87375" transform="rotate(-0 732.86375 434.87375)">Ideal roof (ridge=1.5 FLOP/Byte)</text>
    </g>
    <g id="patch_8">
     <path d="M 704.86375 449.874531
L 724.86375 449.874531
L 724.86375 442.874531
L 704.86375 442.874531
z
" style="fill: url(#hec6e411d58); fill-opacity: 0.16"/>
    </g>
    <g id="text_10">
     <text style="font-size: 10px; font-family: 'DejaVu Sans', 'Bitstream Vera Sans', 'Computer Modern Sans Serif', 'Lucida Grande', 'Verdana', 'Geneva', 'Lucid', 'Arial', 'Helvetica', 'Avant Garde', sans-serif; text-anchor: start" x="732.86375" y="449.874531" transform="rotate(-0 732.86375 449.874531)">memory-bound</text>
    </g>
    <g id="patch_9">
     <path d="M 704.86375 464.875313
L 724.86375 464.875313
L 724.86375 457.875313
L 704.86375 457.875313
z
" style="fill: url(#h4ad9ccf411); fill-opacity: 0.16"/>
    </g>
    <g id="text_11">
     <text style="font-size: 10px; font-family: 'DejaVu Sans', 'Bitstream Vera Sans', 'Computer Modern Sans Serif', 'Lucida Grande', 'Verdana', 'Geneva', 'Lucid', 'Arial', 'Helvetica', 'Avant Garde', sans-serif; text-anchor: start" x="732.86375" y="464.875313" transform="rotate(-0 732.86375 464.875313)">compute-bound</text>
    </g>
   </g>
  </g>
 </g>
 <defs>
  <clipPath id="p2e35421854">
   <rect x="59.482344" y="36.32" width="844.837656" height="439.957656"/>
  </clipPath>
 </defs>
 <defs>
  <pattern id="hec6e411d58" patternUnits="userSpaceOnUse" x="0" y="0" width="72" height="72">
   <rect x="0" y="0" width="73" height="73" fill="#56b4e9"/>
   <path d="M -36 36
L 36 -36
M -32 40
L 40 -32
M -28 44
L 44 -28
M -24 48
L 48 -24
M -20 52
L 52 -20
M -16 56
L 56 -16
M -12 60
L 60 -12
M -8 64
L 64 -8
M -4 68
L 68 -4
M 0 72
L 72 0
M 4 76
L 76 4
M 8 80
L 80 8
M 12 84
L 84 12
M 16 88
L 88 16
M 20 92
L 92 20
M 24 96
L 96 24
M 28 100
L 100 28
M 32 104
L 104 32
M 36 108
L 108 36
" style="fill: #56b4e9; stroke: #56b4e9; stroke-width: 1.0; stroke-linecap: butt; stroke-linejoin: miter; stroke-opacity: 0.16"/>
  </pattern>
  <pattern id="h4ad9ccf411" patternUnits="userSpaceOnUse" x="0" y="0" width="72" height="72">
   <rect x="0" y="0" width="73" height="73" fill="#e69f00"/>
   <path d="M -36 36
L 36 108
M -32 32
L 40 104
M -28 28
L 44 100
M -24 24
L 48 96
M -20 20
L 52 92
M -16 16
L 56 88
M -12 12
L 60 84
M -8 8
L 64 80
M -4 4
L 68 76
M 0 0
L 72 72
M 4 -4
L 76 68
M 8 -8
L 80 64
M 12 -12
L 84 60
M 16 -16
L 88 56
M 20 -20
L 92 52
M 24 -24
L 96 48
M 28 -28
L 100 44
M 32 -32
L 104 40
M 36 -36
L 108 36
" style="fill: #e69f00; stroke: #e69f00; stroke-width: 1.0; stroke-linecap: butt; stroke-linejoin: miter; stroke-opacity: 0.16"/>
  </pattern>
 </defs>
</svg>
