<?xml version="1.0" encoding="utf-8" standalone="no"?>
<!DOCTYPE svg PUBLIC "-//W3C//DTD SVG 1.1//EN"
  "http://www.w3.org/Graphics/SVG/1.1/DTD/svg11.dtd">
<svg xmlns:xlink="http://www.w3.org/1999/xlink" width="921.6pt" height="518.4pt" viewBox="0 0 921.6 518.4" xmlns="http://www.w3.org/2000/svg" version="1.1">
 <metadata>
  <rdf:RDF xmlns:dc="http://purl.org/dc/elements/1.1/" xmlns:cc="http://creativecommons.org/ns#" xmlns:rdf="http://www.w3.org/1999/02/22-rdf-syntax-ns#">
   <cc:Work>
    <dc:type rdf:resource="http://purl.org/dc/dcmitype/StillImage"/>
    <dc:date>2026-06-29T00:11:22.415020</dc:date>
    <dc:format>image/svg+xml</dc:format>
    <dc:creator>
     <cc:Agent>
      <dc:title>Matplotlib v3.11.0, https://matplotlib.org/</dc:title>
     </cc:Agent>
    </dc:creator>
   </cc:Work>
  </rdf:RDF>
 </metadata>
 <defs>
  <style type="text/css">*{stroke-linejoin: round; stroke-linecap: butt}</style>
 </defs>
 <g id="figure_1">
  <g id="patch_1">
   <path d="M 0 518.4 
L 921.6 518.4 
L 921.6 0 
L 0 0 
z
" style="fill: #ffffff"/>
  </g>
  <g id="axes_1">
   <g id="patch_2">
    <path d="M 59.482344 476.277656 
L 904.32 476.277656 
L 904.32 36.32 
L 59.482344 36.32 
z
" style="fill: #ffffff"/>
   </g>
   <g id="FillBetweenPolyCollection_1">
    <defs>
     <path id="m8117d8ddfe" d="M 59.482344 -75.766157 
L 59.482344 -42.122344 
L 61.430591 -42.122344 
L 63.378839 -42.122344 
L 65.327086 -42.122344 
L 67.275333 -42.122344 
L 69.223581 -42.122344 
L 71.171828 -42.122344 
L 73.120076 -42.122344 
L 75.068323 -42.122344 
L 77.016571 -42.122344 
L 78.964818 -42.122344 
L 80.913065 -42.122344 
L 82.861313 -42.122344 
L 84.80956 -42.122344 
L 86.757808 -42.122344 
L 88.706055 -42.122344 
L 90.654302 -42.122344 
L 92.60255 -42.122344 
L 94.550797 -42.122344 
L 96.499045 -42.122344 
L 98.447292 -42.122344 
L 100.39554 -42.122344 
L 102.343787 -42.122344 
L 104.292034 -42.122344 
L 106.240282 -42.122344 
L 108.188529 -42.122344 
L 110.136777 -42.122344 
L 112.085024 -42.122344 
L 114.033271 -42.122344 
L 115.981519 -42.122344 
L 117.929766 -42.122344 
L 119.878014 -42.122344 
L 121.826261 -42.122344 
L 123.774509 -42.122344 
L 125.722756 -42.122344 
L 127.671003 -42.122344 
L 129.619251 -42.122344 
L 131.567498 -42.122344 
L 133.515746 -42.122344 
L 135.463993 -42.122344 
L 137.41224 -42.122344 
L 139.360488 -42.122344 
L 141.308735 -42.122344 
L 143.256983 -42.122344 
L 145.20523 -42.122344 
L 147.153478 -42.122344 
L 149.101725 -42.122344 
L 151.049972 -42.122344 
L 152.99822 -42.122344 
L 154.946467 -42.122344 
L 156.894715 -42.122344 
L 158.842962 -42.122344 
L 160.791209 -42.122344 
L 162.739457 -42.122344 
L 164.687704 -42.122344 
L 166.635952 -42.122344 
L 168.584199 -42.122344 
L 170.532447 -42.122344 
L 172.480694 -42.122344 
L 174.428941 -42.122344 
L 176.377189 -42.122344 
L 178.325436 -42.122344 
L 180.273684 -42.122344 
L 182.221931 -42.122344 
L 184.170178 -42.122344 
L 186.118426 -42.122344 
L 188.066673 -42.122344 
L 190.014921 -42.122344 
L 191.963168 -42.122344 
L 193.911416 -42.122344 
L 195.859663 -42.122344 
L 197.80791 -42.122344 
L 199.756158 -42.122344 
L 201.704405 -42.122344 
L 203.652653 -42.122344 
L 205.6009 -42.122344 
L 207.549147 -42.122344 
L 209.497395 -42.122344 
L 211.445642 -42.122344 
L 213.39389 -42.122344 
L 215.342137 -42.122344 
L 217.290385 -42.122344 
L 219.238632 -42.122344 
L 221.186879 -42.122344 
L 223.135127 -42.122344 
L 225.083374 -42.122344 
L 227.031622 -42.122344 
L 228.979869 -42.122344 
L 230.928116 -42.122344 
L 232.876364 -42.122344 
L 234.824611 -42.122344 
L 236.772859 -42.122344 
L 238.721106 -42.122344 
L 240.669354 -42.122344 
L 242.617601 -42.122344 
L 244.565848 -42.122344 
L 246.514096 -42.122344 
L 248.462343 -42.122344 
L 250.410591 -42.122344 
L 252.358838 -42.122344 
L 254.307085 -42.122344 
L 256.255333 -42.122344 
L 258.20358 -42.122344 
L 260.151828 -42.122344 
L 262.100075 -42.122344 
L 264.048323 -42.122344 
L 265.99657 -42.122344 
L 267.944817 -42.122344 
L 269.893065 -42.122344 
L 271.841312 -42.122344 
L 273.78956 -42.122344 
L 275.737807 -42.122344 
L 277.686054 -42.122344 
L 279.634302 -42.122344 
L 281.582549 -42.122344 
L 283.530797 -42.122344 
L 285.479044 -42.122344 
L 287.427292 -42.122344 
L 289.375539 -42.122344 
L 291.323786 -42.122344 
L 293.272034 -42.122344 
L 295.220281 -42.122344 
L 297.168529 -42.122344 
L 299.116776 -42.122344 
L 301.065023 -42.122344 
L 303.013271 -42.122344 
L 304.961518 -42.122344 
L 306.909766 -42.122344 
L 308.858013 -42.122344 
L 310.806261 -42.122344 
L 312.754508 -42.122344 
L 314.702755 -42.122344 
L 316.651003 -42.122344 
L 318.59925 -42.122344 
L 320.547498 -42.122344 
L 322.495745 -42.122344 
L 324.443993 -42.122344 
L 326.39224 -42.122344 
L 328.340487 -42.122344 
L 330.288735 -42.122344 
L 332.236982 -42.122344 
L 334.18523 -42.122344 
L 336.133477 -42.122344 
L 338.081724 -42.122344 
L 340.029972 -42.122344 
L 341.978219 -42.122344 
L 343.926467 -42.122344 
L 345.874714 -42.122344 
L 347.822962 -42.122344 
L 349.771209 -42.122344 
L 351.719456 -42.122344 
L 353.667704 -42.122344 
L 355.615951 -42.122344 
L 357.564199 -42.122344 
L 359.512446 -42.122344 
L 361.460693 -42.122344 
L 363.408941 -42.122344 
L 365.357188 -42.122344 
L 367.305436 -42.122344 
L 369.253683 -42.122344 
L 371.201931 -42.122344 
L 373.150178 -42.122344 
L 375.098425 -42.122344 
L 377.046673 -42.122344 
L 378.99492 -42.122344 
L 380.943168 -42.122344 
L 382.891415 -42.122344 
L 384.839662 -42.122344 
L 386.78791 -42.122344 
L 388.736157 -42.122344 
L 390.684405 -42.122344 
L 392.632652 -42.122344 
L 394.5809 -42.122344 
L 396.529147 -42.122344 
L 398.477394 -42.122344 
L 400.425642 -42.122344 
L 402.373889 -42.122344 
L 404.322137 -42.122344 
L 406.270384 -42.122344 
L 408.218631 -42.122344 
L 410.166879 -42.122344 
L 412.115126 -42.122344 
L 414.063374 -42.122344 
L 416.011621 -42.122344 
L 417.959869 -42.122344 
L 419.908116 -42.122344 
L 421.856363 -42.122344 
L 423.804611 -42.122344 
L 425.752858 -42.122344 
L 427.701106 -42.122344 
L 429.649353 -42.122344 
L 431.5976 -42.122344 
L 433.545848 -42.122344 
L 435.494095 -42.122344 
L 437.442343 -42.122344 
L 439.39059 -42.122344 
L 441.338838 -42.122344 
L 443.287085 -42.122344 
L 445.235332 -42.122344 
L 447.18358 -42.122344 
L 449.131827 -42.122344 
L 451.080075 -42.122344 
L 453.028322 -42.122344 
L 454.976569 -42.122344 
L 456.924817 -42.122344 
L 458.873064 -42.122344 
L 460.821312 -42.122344 
L 462.769559 -42.122344 
L 464.717807 -42.122344 
L 466.666054 -42.122344 
L 468.614301 -42.122344 
L 470.562549 -42.122344 
L 472.510796 -42.122344 
L 474.459044 -42.122344 
L 476.407291 -42.122344 
L 478.355538 -42.122344 
L 480.303786 -42.122344 
L 482.252033 -42.122344 
L 484.200281 -42.122344 
L 486.148528 -42.122344 
L 488.096776 -42.122344 
L 490.045023 -42.122344 
L 491.99327 -42.122344 
L 493.941518 -42.122344 
L 495.889765 -42.122344 
L 497.838013 -42.122344 
L 499.78626 -42.122344 
L 501.734507 -42.122344 
L 503.682755 -42.122344 
L 505.631002 -42.122344 
L 507.57925 -42.122344 
L 509.527497 -42.122344 
L 511.475745 -42.122344 
L 513.423992 -42.122344 
L 515.372239 -42.122344 
L 517.320487 -42.122344 
L 519.268734 -42.122344 
L 521.216982 -42.122344 
L 523.165229 -42.122344 
L 525.113476 -42.122344 
L 527.061724 -42.122344 
L 529.009971 -42.122344 
L 530.958219 -42.122344 
L 532.906466 -42.122344 
L 534.854714 -42.122344 
L 536.802961 -42.122344 
L 538.751208 -42.122344 
L 540.699456 -42.122344 
L 542.647703 -42.122344 
L 544.595951 -42.122344 
L 546.544198 -42.122344 
L 548.492445 -42.122344 
L 550.440693 -42.122344 
L 552.38894 -42.122344 
L 554.337188 -42.122344 
L 556.285435 -42.122344 
L 556.285435 -379.357432 
L 556.285435 -379.357432 
L 554.337188 -378.166878 
L 552.38894 -376.976324 
L 550.440693 -375.78577 
L 548.492445 -374.595216 
L 546.544198 -373.404662 
L 544.595951 -372.214108 
L 542.647703 -371.023554 
L 540.699456 -369.833 
L 538.751208 -368.642446 
L 536.802961 -367.451892 
L 534.854714 -366.261338 
L 532.906466 -365.070784 
L 530.958219 -363.88023 
L 529.009971 -362.689676 
L 527.061724 -361.499122 
L 525.113476 -360.308568 
L 523.165229 -359.118014 
L 521.216982 -357.92746 
L 519.268734 -356.736906 
L 517.320487 -355.546352 
L 515.372239 -354.355797 
L 513.423992 -353.165243 
L 511.475745 -351.974689 
L 509.527497 -350.784135 
L 507.57925 -349.593581 
L 505.631002 -348.403027 
L 503.682755 -347.212473 
L 501.734507 -346.021919 
L 499.78626 -344.831365 
L 497.838013 -343.640811 
L 495.889765 -342.450257 
L 493.941518 -341.259703 
L 491.99327 -340.069149 
L 490.045023 -338.878595 
L 488.096776 -337.688041 
L 486.148528 -336.497487 
L 484.200281 -335.306933 
L 482.252033 -334.116379 
L 480.303786 -332.925825 
L 478.355538 -331.735271 
L 476.407291 -330.544717 
L 474.459044 -329.354163 
L 472.510796 -328.163609 
L 470.562549 -326.973055 
L 468.614301 -325.782501 
L 466.666054 -324.591947 
L 464.717807 -323.401393 
L 462.769559 -322.210839 
L 460.821312 -321.020285 
L 458.873064 -319.829731 
L 456.924817 -318.639177 
L 454.976569 -317.448623 
L 453.028322 -316.258069 
L 451.080075 -315.067515 
L 449.131827 -313.876961 
L 447.18358 -312.686407 
L 445.235332 -311.495853 
L 443.287085 -310.305299 
L 441.338838 -309.114745 
L 439.39059 -307.924191 
L 437.442343 -306.733637 
L 435.494095 -305.543083 
L 433.545848 -304.352529 
L 431.5976 -303.161975 
L 429.649353 -301.971421 
L 427.701106 -300.780867 
L 425.752858 -299.590313 
L 423.804611 -298.399759 
L 421.856363 -297.209205 
L 419.908116 -296.018651 
L 417.959869 -294.828097 
L 416.011621 -293.637543 
L 414.063374 -292.446989 
L 412.115126 -291.256435 
L 410.166879 -290.06588 
L 408.218631 -288.875326 
L 406.270384 -287.684772 
L 404.322137 -286.494218 
L 402.373889 -285.303664 
L 400.425642 -284.11311 
L 398.477394 -282.922556 
L 396.529147 -281.732002 
L 394.5809 -280.541448 
L 392.632652 -279.350894 
L 390.684405 -278.16034 
L 388.736157 -276.969786 
L 386.78791 -275.779232 
L 384.839662 -274.588678 
L 382.891415 -273.398124 
L 380.943168 -272.20757 
L 378.99492 -271.017016 
L 377.046673 -269.826462 
L 375.098425 -268.635908 
L 373.150178 -267.445354 
L 371.201931 -266.2548 
L 369.253683 -265.064246 
L 367.305436 -263.873692 
L 365.357188 -262.683138 
L 363.408941 -261.492584 
L 361.460693 -260.30203 
L 359.512446 -259.111476 
L 357.564199 -257.920922 
L 355.615951 -256.730368 
L 353.667704 -255.539814 
L 351.719456 -254.34926 
L 349.771209 -253.158706 
L 347.822962 -251.968152 
L 345.874714 -250.777598 
L 343.926467 -249.587044 
L 341.978219 -248.39649 
L 340.029972 -247.205936 
L 338.081724 -246.015382 
L 336.133477 -244.824828 
L 334.18523 -243.634274 
L 332.236982 -242.44372 
L 330.288735 -241.253166 
L 328.340487 -240.062612 
L 326.39224 -238.872058 
L 324.443993 -237.681504 
L 322.495745 -236.49095 
L 320.547498 -235.300396 
L 318.59925 -234.109842 
L 316.651003 -232.919288 
L 314.702755 -231.728734 
L 312.754508 -230.53818 
L 310.806261 -229.347626 
L 308.858013 -228.157072 
L 306.909766 -226.966518 
L 304.961518 -225.775964 
L 303.013271 -224.585409 
L 301.065023 -223.394855 
L 299.116776 -222.204301 
L 297.168529 -221.013747 
L 295.220281 -219.823193 
L 293.272034 -218.632639 
L 291.323786 -217.442085 
L 289.375539 -216.251531 
L 287.427292 -215.060977 
L 285.479044 -213.870423 
L 283.530797 -212.679869 
L 281.582549 -211.489315 
L 279.634302 -210.298761 
L 277.686054 -209.108207 
L 275.737807 -207.917653 
L 273.78956 -206.727099 
L 271.841312 -205.536545 
L 269.893065 -204.345991 
L 267.944817 -203.155437 
L 265.99657 -201.964883 
L 264.048323 -200.774329 
L 262.100075 -199.583775 
L 260.151828 -198.393221 
L 258.20358 -197.202667 
L 256.255333 -196.012113 
L 254.307085 -194.821559 
L 252.358838 -193.631005 
L 250.410591 -192.440451 
L 248.462343 -191.249897 
L 246.514096 -190.059343 
L 244.565848 -188.868789 
L 242.617601 -187.678235 
L 240.669354 -186.487681 
L 238.721106 -185.297127 
L 236.772859 -184.106573 
L 234.824611 -182.916019 
L 232.876364 -181.725465 
L 230.928116 -180.534911 
L 228.979869 -179.344357 
L 227.031622 -178.153803 
L 225.083374 -176.963249 
L 223.135127 -175.772695 
L 221.186879 -174.582141 
L 219.238632 -173.391587 
L 217.290385 -172.201033 
L 215.342137 -171.010479 
L 213.39389 -169.819925 
L 211.445642 -168.629371 
L 209.497395 -167.438817 
L 207.549147 -166.248263 
L 205.6009 -165.057709 
L 203.652653 -163.867155 
L 201.704405 -162.676601 
L 199.756158 -161.486047 
L 197.80791 -160.295492 
L 195.859663 -159.104938 
L 193.911416 -157.914384 
L 191.963168 -156.72383 
L 190.014921 -155.533276 
L 188.066673 -154.342722 
L 186.118426 -153.152168 
L 184.170178 -151.961614 
L 182.221931 -150.77106 
L 180.273684 -149.580506 
L 178.325436 -148.389952 
L 176.377189 -147.199398 
L 174.428941 -146.008844 
L 172.480694 -144.81829 
L 170.532447 -143.627736 
L 168.584199 -142.437182 
L 166.635952 -141.246628 
L 164.687704 -140.056074 
L 162.739457 -138.86552 
L 160.791209 -137.674966 
L 158.842962 -136.484412 
L 156.894715 -135.293858 
L 154.946467 -134.103304 
L 152.99822 -132.91275 
L 151.049972 -131.722196 
L 149.101725 -130.531642 
L 147.153478 -129.341088 
L 145.20523 -128.150534 
L 143.256983 -126.95998 
L 141.308735 -125.769426 
L 139.360488 -124.578872 
L 137.41224 -123.388318 
L 135.463993 -122.197764 
L 133.515746 -121.00721 
L 131.567498 -119.816656 
L 129.619251 -118.626102 
L 127.671003 -117.435548 
L 125.722756 -116.244994 
L 123.774509 -115.05444 
L 121.826261 -113.863886 
L 119.878014 -112.673332 
L 117.929766 -111.482778 
L 115.981519 -110.292224 
L 114.033271 -109.10167 
L 112.085024 -107.911116 
L 110.136777 -106.720562 
L 108.188529 -105.530008 
L 106.240282 -104.339454 
L 104.292034 -103.1489 
L 102.343787 -101.958346 
L 100.39554 -100.767792 
L 98.447292 -99.577238 
L 96.499045 -98.386684 
L 94.550797 -97.19613 
L 92.60255 -96.005576 
L 90.654302 -94.815021 
L 88.706055 -93.624467 
L 86.757808 -92.433913 
L 84.80956 -91.243359 
L 82.861313 -90.052805 
L 80.913065 -88.862251 
L 78.964818 -87.671697 
L 77.016571 -86.481143 
L 75.068323 -85.290589 
L 73.120076 -84.100035 
L 71.171828 -82.909481 
L 69.223581 -81.718927 
L 67.275333 -80.528373 
L 65.327086 -79.337819 
L 63.378839 -78.147265 
L 61.430591 -76.956711 
L 59.482344 -75.766157 
z
"/>
    </defs>
    <g clip-path="url(#p9d012f88aa)">
     <use xlink:href="#m8117d8ddfe" x="0" y="518.4" style="fill: #22c55e; fill-opacity: 0.2"/>
    </g>
   </g>
   <g id="FillBetweenPolyCollection_2">
    <defs>
     <path id="mbb5e309967" d="M 556.285435 -379.357432 
L 556.285435 -42.122344 
L 557.650277 -42.122344 
L 559.015118 -42.122344 
L 560.379959 -42.122344 
L 561.744801 -42.122344 
L 563.109642 -42.122344 
L 564.474484 -42.122344 
L 565.839325 -42.122344 
L 567.204167 -42.122344 
L 568.569008 -42.122344 
L 569.933849 -42.122344 
L 571.298691 -42.122344 
L 572.663532 -42.122344 
L 574.028374 -42.122344 
L 575.393215 -42.122344 
L 576.758057 -42.122344 
L 578.122898 -42.122344 
L 579.487739 -42.122344 
L 580.852581 -42.122344 
L 582.217422 -42.122344 
L 583.582264 -42.122344 
L 584.947105 -42.122344 
L 586.311947 -42.122344 
L 587.676788 -42.122344 
L 589.04163 -42.122344 
L 590.406471 -42.122344 
L 591.771312 -42.122344 
L 593.136154 -42.122344 
L 594.500995 -42.122344 
L 595.865837 -42.122344 
L 597.230678 -42.122344 
L 598.59552 -42.122344 
L 599.960361 -42.122344 
L 601.325202 -42.122344 
L 602.690044 -42.122344 
L 604.054885 -42.122344 
L 605.419727 -42.122344 
L 606.784568 -42.122344 
L 608.14941 -42.122344 
L 609.514251 -42.122344 
L 610.879092 -42.122344 
L 612.243934 -42.122344 
L 613.608775 -42.122344 
L 614.973617 -42.122344 
L 616.338458 -42.122344 
L 617.7033 -42.122344 
L 619.068141 -42.122344 
L 620.432982 -42.122344 
L 621.797824 -42.122344 
L 623.162665 -42.122344 
L 624.527507 -42.122344 
L 625.892348 -42.122344 
L 627.25719 -42.122344 
L 628.622031 -42.122344 
L 629.986872 -42.122344 
L 631.351714 -42.122344 
L 632.716555 -42.122344 
L 634.081397 -42.122344 
L 635.446238 -42.122344 
L 636.81108 -42.122344 
L 638.175921 -42.122344 
L 639.540762 -42.122344 
L 640.905604 -42.122344 
L 642.270445 -42.122344 
L 643.635287 -42.122344 
L 645.000128 -42.122344 
L 646.36497 -42.122344 
L 647.729811 -42.122344 
L 649.094652 -42.122344 
L 650.459494 -42.122344 
L 651.824335 -42.122344 
L 653.189177 -42.122344 
L 654.554018 -42.122344 
L 655.91886 -42.122344 
L 657.283701 -42.122344 
L 658.648542 -42.122344 
L 660.013384 -42.122344 
L 661.378225 -42.122344 
L 662.743067 -42.122344 
L 664.107908 -42.122344 
L 665.47275 -42.122344 
L 666.837591 -42.122344 
L 668.202432 -42.122344 
L 669.567274 -42.122344 
L 670.932115 -42.122344 
L 672.296957 -42.122344 
L 673.661798 -42.122344 
L 675.02664 -42.122344 
L 676.391481 -42.122344 
L 677.756323 -42.122344 
L 679.121164 -42.122344 
L 680.486005 -42.122344 
L 681.850847 -42.122344 
L 683.215688 -42.122344 
L 684.58053 -42.122344 
L 685.945371 -42.122344 
L 687.310213 -42.122344 
L 688.675054 -42.122344 
L 690.039895 -42.122344 
L 691.404737 -42.122344 
L 692.769578 -42.122344 
L 694.13442 -42.122344 
L 695.499261 -42.122344 
L 696.864103 -42.122344 
L 698.228944 -42.122344 
L 699.593785 -42.122344 
L 700.958627 -42.122344 
L 702.323468 -42.122344 
L 703.68831 -42.122344 
L 705.053151 -42.122344 
L 706.417993 -42.122344 
L 707.782834 -42.122344 
L 709.147675 -42.122344 
L 710.512517 -42.122344 
L 711.877358 -42.122344 
L 713.2422 -42.122344 
L 714.607041 -42.122344 
L 715.971883 -42.122344 
L 717.336724 -42.122344 
L 718.701565 -42.122344 
L 720.066407 -42.122344 
L 721.431248 -42.122344 
L 722.79609 -42.122344 
L 724.160931 -42.122344 
L 725.525773 -42.122344 
L 726.890614 -42.122344 
L 728.255455 -42.122344 
L 729.620297 -42.122344 
L 730.985138 -42.122344 
L 732.34998 -42.122344 
L 733.714821 -42.122344 
L 735.079663 -42.122344 
L 736.444504 -42.122344 
L 737.809345 -42.122344 
L 739.174187 -42.122344 
L 740.539028 -42.122344 
L 741.90387 -42.122344 
L 743.268711 -42.122344 
L 744.633553 -42.122344 
L 745.998394 -42.122344 
L 747.363235 -42.122344 
L 748.728077 -42.122344 
L 750.092918 -42.122344 
L 751.45776 -42.122344 
L 752.822601 -42.122344 
L 754.187443 -42.122344 
L 755.552284 -42.122344 
L 756.917125 -42.122344 
L 758.281967 -42.122344 
L 759.646808 -42.122344 
L 761.01165 -42.122344 
L 762.376491 -42.122344 
L 763.741333 -42.122344 
L 765.106174 -42.122344 
L 766.471015 -42.122344 
L 767.835857 -42.122344 
L 769.200698 -42.122344 
L 770.56554 -42.122344 
L 771.930381 -42.122344 
L 773.295223 -42.122344 
L 774.660064 -42.122344 
L 776.024906 -42.122344 
L 777.389747 -42.122344 
L 778.754588 -42.122344 
L 780.11943 -42.122344 
L 781.484271 -42.122344 
L 782.849113 -42.122344 
L 784.213954 -42.122344 
L 785.578796 -42.122344 
L 786.943637 -42.122344 
L 788.308478 -42.122344 
L 789.67332 -42.122344 
L 791.038161 -42.122344 
L 792.403003 -42.122344 
L 793.767844 -42.122344 
L 795.132686 -42.122344 
L 796.497527 -42.122344 
L 797.862368 -42.122344 
L 799.22721 -42.122344 
L 800.592051 -42.122344 
L 801.956893 -42.122344 
L 803.321734 -42.122344 
L 804.686576 -42.122344 
L 806.051417 -42.122344 
L 807.416258 -42.122344 
L 808.7811 -42.122344 
L 810.145941 -42.122344 
L 811.510783 -42.122344 
L 812.875624 -42.122344 
L 814.240466 -42.122344 
L 815.605307 -42.122344 
L 816.970148 -42.122344 
L 818.33499 -42.122344 
L 819.699831 -42.122344 
L 821.064673 -42.122344 
L 822.429514 -42.122344 
L 823.794356 -42.122344 
L 825.159197 -42.122344 
L 826.524038 -42.122344 
L 827.88888 -42.122344 
L 829.253721 -42.122344 
L 830.618563 -42.122344 
L 831.983404 -42.122344 
L 833.348246 -42.122344 
L 834.713087 -42.122344 
L 836.077928 -42.122344 
L 837.44277 -42.122344 
L 838.807611 -42.122344 
L 840.172453 -42.122344 
L 841.537294 -42.122344 
L 842.902136 -42.122344 
L 844.266977 -42.122344 
L 845.631818 -42.122344 
L 846.99666 -42.122344 
L 848.361501 -42.122344 
L 849.726343 -42.122344 
L 851.091184 -42.122344 
L 852.456026 -42.122344 
L 853.820867 -42.122344 
L 855.185708 -42.122344 
L 856.55055 -42.122344 
L 857.915391 -42.122344 
L 859.280233 -42.122344 
L 860.645074 -42.122344 
L 862.009916 -42.122344 
L 863.374757 -42.122344 
L 864.739599 -42.122344 
L 866.10444 -42.122344 
L 867.469281 -42.122344 
L 868.834123 -42.122344 
L 870.198964 -42.122344 
L 871.563806 -42.122344 
L 872.928647 -42.122344 
L 874.293489 -42.122344 
L 875.65833 -42.122344 
L 877.023171 -42.122344 
L 878.388013 -42.122344 
L 879.752854 -42.122344 
L 881.117696 -42.122344 
L 882.482537 -42.122344 
L 883.847379 -42.122344 
L 885.21222 -42.122344 
L 886.577061 -42.122344 
L 887.941903 -42.122344 
L 889.306744 -42.122344 
L 890.671586 -42.122344 
L 892.036427 -42.122344 
L 893.401269 -42.122344 
L 894.76611 -42.122344 
L 896.130951 -42.122344 
L 897.495793 -42.122344 
L 898.860634 -42.122344 
L 900.225476 -42.122344 
L 901.590317 -42.122344 
L 902.955159 -42.122344 
L 904.32 -42.122344 
L 904.32 -379.357432 
L 904.32 -379.357432 
L 902.955159 -379.357432 
L 901.590317 -379.357432 
L 900.225476 -379.357432 
L 898.860634 -379.357432 
L 897.495793 -379.357432 
L 896.130951 -379.357432 
L 894.76611 -379.357432 
L 893.401269 -379.357432 
L 892.036427 -379.357432 
L 890.671586 -379.357432 
L 889.306744 -379.357432 
L 887.941903 -379.357432 
L 886.577061 -379.357432 
L 885.21222 -379.357432 
L 883.847379 -379.357432 
L 882.482537 -379.357432 
L 881.117696 -379.357432 
L 879.752854 -379.357432 
L 878.388013 -379.357432 
L 877.023171 -379.357432 
L 875.65833 -379.357432 
L 874.293489 -379.357432 
L 872.928647 -379.357432 
L 871.563806 -379.357432 
L 870.198964 -379.357432 
L 868.834123 -379.357432 
L 867.469281 -379.357432 
L 866.10444 -379.357432 
L 864.739599 -379.357432 
L 863.374757 -379.357432 
L 862.009916 -379.357432 
L 860.645074 -379.357432 
L 859.280233 -379.357432 
L 857.915391 -379.357432 
L 856.55055 -379.357432 
L 855.185708 -379.357432 
L 853.820867 -379.357432 
L 852.456026 -379.357432 
L 851.091184 -379.357432 
L 849.726343 -379.357432 
L 848.361501 -379.357432 
L 846.99666 -379.357432 
L 845.631818 -379.357432 
L 844.266977 -379.357432 
L 842.902136 -379.357432 
L 841.537294 -379.357432 
L 840.172453 -379.357432 
L 838.807611 -379.357432 
L 837.44277 -379.357432 
L 836.077928 -379.357432 
L 834.713087 -379.357432 
L 833.348246 -379.357432 
L 831.983404 -379.357432 
L 830.618563 -379.357432 
L 829.253721 -379.357432 
L 827.88888 -379.357432 
L 826.524038 -379.357432 
L 825.159197 -379.357432 
L 823.794356 -379.357432 
L 822.429514 -379.357432 
L 821.064673 -379.357432 
L 819.699831 -379.357432 
L 818.33499 -379.357432 
L 816.970148 -379.357432 
L 815.605307 -379.357432 
L 814.240466 -379.357432 
L 812.875624 -379.357432 
L 811.510783 -379.357432 
L 810.145941 -379.357432 
L 808.7811 -379.357432 
L 807.416258 -379.357432 
L 806.051417 -379.357432 
L 804.686576 -379.357432 
L 803.321734 -379.357432 
L 801.956893 -379.357432 
L 800.592051 -379.357432 
L 799.22721 -379.357432 
L 797.862368 -379.357432 
L 796.497527 -379.357432 
L 795.132686 -379.357432 
L 793.767844 -379.357432 
L 792.403003 -379.357432 
L 791.038161 -379.357432 
L 789.67332 -379.357432 
L 788.308478 -379.357432 
L 786.943637 -379.357432 
L 785.578796 -379.357432 
L 784.213954 -379.357432 
L 782.849113 -379.357432 
L 781.484271 -379.357432 
L 780.11943 -379.357432 
L 778.754588 -379.357432 
L 777.389747 -379.357432 
L 776.024906 -379.357432 
L 774.660064 -379.357432 
L 773.295223 -379.357432 
L 771.930381 -379.357432 
L 770.56554 -379.357432 
L 769.200698 -379.357432 
L 767.835857 -379.357432 
L 766.471015 -379.357432 
L 765.106174 -379.357432 
L 763.741333 -379.357432 
L 762.376491 -379.357432 
L 761.01165 -379.357432 
L 759.646808 -379.357432 
L 758.281967 -379.357432 
L 756.917125 -379.357432 
L 755.552284 -379.357432 
L 754.187443 -379.357432 
L 752.822601 -379.357432 
L 751.45776 -379.357432 
L 750.092918 -379.357432 
L 748.728077 -379.357432 
L 747.363235 -379.357432 
L 745.998394 -379.357432 
L 744.633553 -379.357432 
L 743.268711 -379.357432 
L 741.90387 -379.357432 
L 740.539028 -379.357432 
L 739.174187 -379.357432 
L 737.809345 -379.357432 
L 736.444504 -379.357432 
L 735.079663 -379.357432 
L 733.714821 -379.357432 
L 732.34998 -379.357432 
L 730.985138 -379.357432 
L 729.620297 -379.357432 
L 728.255455 -379.357432 
L 726.890614 -379.357432 
L 725.525773 -379.357432 
L 724.160931 -379.357432 
L 722.79609 -379.357432 
L 721.431248 -379.357432 
L 720.066407 -379.357432 
L 718.701565 -379.357432 
L 717.336724 -379.357432 
L 715.971883 -379.357432 
L 714.607041 -379.357432 
L 713.2422 -379.357432 
L 711.877358 -379.357432 
L 710.512517 -379.357432 
L 709.147675 -379.357432 
L 707.782834 -379.357432 
L 706.417993 -379.357432 
L 705.053151 -379.357432 
L 703.68831 -379.357432 
L 702.323468 -379.357432 
L 700.958627 -379.357432 
L 699.593785 -379.357432 
L 698.228944 -379.357432 
L 696.864103 -379.357432 
L 695.499261 -379.357432 
L 694.13442 -379.357432 
L 692.769578 -379.357432 
L 691.404737 -379.357432 
L 690.039895 -379.357432 
L 688.675054 -379.357432 
L 687.310213 -379.357432 
L 685.945371 -379.357432 
L 684.58053 -379.357432 
L 683.215688 -379.357432 
L 681.850847 -379.357432 
L 680.486005 -379.357432 
L 679.121164 -379.357432 
L 677.756323 -379.357432 
L 676.391481 -379.357432 
L 675.02664 -379.357432 
L 673.661798 -379.357432 
L 672.296957 -379.357432 
L 670.932115 -379.357432 
L 669.567274 -379.357432 
L 668.202432 -379.357432 
L 666.837591 -379.357432 
L 665.47275 -379.357432 
L 664.107908 -379.357432 
L 662.743067 -379.357432 
L 661.378225 -379.357432 
L 660.013384 -379.357432 
L 658.648542 -379.357432 
L 657.283701 -379.357432 
L 655.91886 -379.357432 
L 654.554018 -379.357432 
L 653.189177 -379.357432 
L 651.824335 -379.357432 
L 650.459494 -379.357432 
L 649.094652 -379.357432 
L 647.729811 -379.357432 
L 646.36497 -379.357432 
L 645.000128 -379.357432 
L 643.635287 -379.357432 
L 642.270445 -379.357432 
L 640.905604 -379.357432 
L 639.540762 -379.357432 
L 638.175921 -379.357432 
L 636.81108 -379.357432 
L 635.446238 -379.357432 
L 634.081397 -379.357432 
L 632.716555 -379.357432 
L 631.351714 -379.357432 
L 629.986872 -379.357432 
L 628.622031 -379.357432 
L 627.25719 -379.357432 
L 625.892348 -379.357432 
L 624.527507 -379.357432 
L 623.162665 -379.357432 
L 621.797824 -379.357432 
L 620.432982 -379.357432 
L 619.068141 -379.357432 
L 617.7033 -379.357432 
L 616.338458 -379.357432 
L 614.973617 -379.357432 
L 613.608775 -379.357432 
L 612.243934 -379.357432 
L 610.879092 -379.357432 
L 609.514251 -379.357432 
L 608.14941 -379.357432 
L 606.784568 -379.357432 
L 605.419727 -379.357432 
L 604.054885 -379.357432 
L 602.690044 -379.357432 
L 601.325202 -379.357432 
L 599.960361 -379.357432 
L 598.59552 -379.357432 
L 597.230678 -379.357432 
L 595.865837 -379.357432 
L 594.500995 -379.357432 
L 593.136154 -379.357432 
L 591.771312 -379.357432 
L 590.406471 -379.357432 
L 589.04163 -379.357432 
L 587.676788 -379.357432 
L 586.311947 -379.357432 
L 584.947105 -379.357432 
L 583.582264 -379.357432 
L 582.217422 -379.357432 
L 580.852581 -379.357432 
L 579.487739 -379.357432 
L 578.122898 -379.357432 
L 576.758057 -379.357432 
L 575.393215 -379.357432 
L 574.028374 -379.357432 
L 572.663532 -379.357432 
L 571.298691 -379.357432 
L 569.933849 -379.357432 
L 568.569008 -379.357432 
L 567.204167 -379.357432 
L 565.839325 -379.357432 
L 564.474484 -379.357432 
L 563.109642 -379.357432 
L 561.744801 -379.357432 
L 560.379959 -379.357432 
L 559.015118 -379.357432 
L 557.650277 -379.357432 
L 556.285435 -379.357432 
z
"/>
    </defs>
    <g clip-path="url(#p9d012f88aa)">
     <use xlink:href="#mbb5e309967" x="0" y="518.4" style="fill: #ef4444; fill-opacity: 0.2"/>
    </g>
   </g>
   <g id="matplotlib.axis_1">
    <g id="xtick_1">
     <g id="line2d_1">
      <path d="M 59.482344 476.277656 
L 59.482344 36.32 
" clip-path="url(#p9d012f88aa)" style="fill: none; stroke: #d1d5db; stroke-width: 0.8; stroke-linecap: square"/>
     </g>
     <g id="line2d_2">
      <defs>
       <path id="m57ac21ca7b" d="M 0 0 
L 0 3.5 
" style="stroke: #000000; stroke-width: 0.8"/>
      </defs>
      <g>
       <use xlink:href="#m57ac21ca7b" x="59.482344" y="476.277656" style="stroke: #000000; stroke-width: 0.8"/>
      </g>
     </g>
     <g id="text_1">
      <!-- 100m -->
      <g transform="translate(45.068281 490.875313) scale(0.1 -0.1)">
       <defs>
        <path id="DejaVuSans-14" d="M 794 531 
L 1825 531 
L 1825 4091 
L 703 3866 
L 703 4441 
L 1819 4666 
L 2450 4666 
L 2450 531 
L 3481 531 
L 3481 0 
L 794 0 
L 794 531 
z
" transform="scale(0.015625)"/>
        <path id="DejaVuSans-13" d="M 2034 4250 
Q 1547 4250 1301 3770 
Q 1056 3291 1056 2328 
Q 1056 1369 1301 889 
Q 1547 409 2034 409 
Q 2525 409 2770 889 
Q 3016 1369 3016 2328 
Q 3016 3291 2770 3770 
Q 2525 4250 2034 4250 
z
M 2034 4750 
Q 2819 4750 3233 4129 
Q 3647 3509 3647 2328 
Q 3647 1150 3233 529 
Q 2819 -91 2034 -91 
Q 1250 -91 836 529 
Q 422 1150 422 2328 
Q 422 3509 836 4129 
Q 1250 4750 2034 4750 
z
" transform="scale(0.015625)"/>
        <path id="DejaVuSans-50" d="M 3328 2828 
Q 3544 3216 3844 3400 
Q 4144 3584 4550 3584 
Q 5097 3584 5394 3201 
Q 5691 2819 5691 2113 
L 5691 0 
L 5113 0 
L 5113 2094 
Q 5113 2597 4934 2840 
Q 4756 3084 4391 3084 
Q 3944 3084 3684 2787 
Q 3425 2491 3425 1978 
L 3425 0 
L 2847 0 
L 2847 2094 
Q 2847 2600 2669 2842 
Q 2491 3084 2119 3084 
Q 1678 3084 1418 2786 
Q 1159 2488 1159 1978 
L 1159 0 
L 581 0 
L 581 3500 
L 1159 3500 
L 1159 2956 
Q 1356 3278 1631 3431 
Q 1906 3584 2284 3584 
Q 2666 3584 2933 3390 
Q 3200 3197 3328 2828 
z
" transform="scale(0.015625)"/>
       </defs>
       <use xlink:href="#DejaVuSans-14"/>
       <use xlink:href="#DejaVuSans-13" transform="translate(63.625 0)"/>
       <use xlink:href="#DejaVuSans-13" transform="translate(127.25 0)"/>
       <use xlink:href="#DejaVuSans-50" transform="translate(190.875 0)"/>
      </g>
     </g>
    </g>
    <g id="xtick_2">
     <g id="line2d_3">
      <path d="M 481.901172 476.277656 
L 481.901172 36.32 
" clip-path="url(#p9d012f88aa)" style="fill: none; stroke: #d1d5db; stroke-width: 0.8; stroke-linecap: square"/>
     </g>
     <g id="line2d_4">
      <g>
       <use xlink:href="#m57ac21ca7b" x="481.901172" y="476.277656" style="stroke: #000000; stroke-width: 0.8"/>
      </g>
     </g>
     <g id="text_2">
      <!-- 1 -->
      <g transform="translate(478.719922 490.875313) scale(0.1 -0.1)">
       <use xlink:href="#DejaVuSans-14"/>
      </g>
     </g>
    </g>
    <g id="xtick_3">
     <g id="line2d_5">
      <path d="M 904.32 476.277656 
L 904.32 36.32 
" clip-path="url(#p9d012f88aa)" style="fill: none; stroke: #d1d5db; stroke-width: 0.8; stroke-linecap: square"/>
     </g>
     <g id="line2d_6">
      <g>
       <use xlink:href="#m57ac21ca7b" x="904.32" y="476.277656" style="stroke: #000000; stroke-width: 0.8"/>
      </g>
     </g>
     <g id="text_3">
      <!-- 10 -->
      <g transform="translate(897.9575 490.875313) scale(0.1 -0.1)">
       <use xlink:href="#DejaVuSans-14"/>
       <use xlink:href="#DejaVuSans-13" transform="translate(63.625 0)"/>
      </g>
     </g>
    </g>
    <g id="xtick_4">
     <g id="line2d_7">
      <path d="M 186.643082 476.277656 
L 186.643082 36.32 
" clip-path="url(#p9d012f88aa)" style="fill: none; stroke: #e5e7eb; stroke-opacity: 0.7; stroke-width: 0.45; stroke-linecap: square"/>
     </g>
     <g id="line2d_8">
      <defs>
       <path id="mcbd7879cc7" d="M 0 0 
L 0 2 
" style="stroke: #000000; stroke-width: 0.6"/>
      </defs>
      <g>
       <use xlink:href="#mcbd7879cc7" x="186.643082" y="476.277656" style="stroke: #000000; stroke-width: 0.6"/>
      </g>
     </g>
    </g>
    <g id="xtick_5">
     <g id="line2d_9">
      <path d="M 261.027345 476.277656 
L 261.027345 36.32 
" clip-path="url(#p9d012f88aa)" style="fill: none; stroke: #e5e7eb; stroke-opacity: 0.7; stroke-width: 0.45; stroke-linecap: square"/>
     </g>
     <g id="line2d_10">
      <g>
       <use xlink:href="#mcbd7879cc7" x="261.027345" y="476.277656" style="stroke: #000000; stroke-width: 0.6"/>
      </g>
     </g>
    </g>
    <g id="xtick_6">
     <g id="line2d_11">
      <path d="M 313.80382 476.277656 
L 313.80382 36.32 
" clip-path="url(#p9d012f88aa)" style="fill: none; stroke: #e5e7eb; stroke-opacity: 0.7; stroke-width: 0.45; stroke-linecap: square"/>
     </g>
     <g id="line2d_12">
      <g>
       <use xlink:href="#mcbd7879cc7" x="313.80382" y="476.277656" style="stroke: #000000; stroke-width: 0.6"/>
      </g>
     </g>
    </g>
    <g id="xtick_7">
     <g id="line2d_13">
      <path d="M 354.740434 476.277656 
L 354.740434 36.32 
" clip-path="url(#p9d012f88aa)" style="fill: none; stroke: #e5e7eb; stroke-opacity: 0.7; stroke-width: 0.45; stroke-linecap: square"/>
     </g>
     <g id="line2d_14">
      <g>
       <use xlink:href="#mcbd7879cc7" x="354.740434" y="476.277656" style="stroke: #000000; stroke-width: 0.6"/>
      </g>
     </g>
    </g>
    <g id="xtick_8">
     <g id="line2d_15">
      <path d="M 388.188083 476.277656 
L 388.188083 36.32 
" clip-path="url(#p9d012f88aa)" style="fill: none; stroke: #e5e7eb; stroke-opacity: 0.7; stroke-width: 0.45; stroke-linecap: square"/>
     </g>
     <g id="line2d_16">
      <g>
       <use xlink:href="#mcbd7879cc7" x="388.188083" y="476.277656" style="stroke: #000000; stroke-width: 0.6"/>
      </g>
     </g>
    </g>
    <g id="xtick_9">
     <g id="line2d_17">
      <path d="M 416.467667 476.277656 
L 416.467667 36.32 
" clip-path="url(#p9d012f88aa)" style="fill: none; stroke: #e5e7eb; stroke-opacity: 0.7; stroke-width: 0.45; stroke-linecap: square"/>
     </g>
     <g id="line2d_18">
      <g>
       <use xlink:href="#mcbd7879cc7" x="416.467667" y="476.277656" style="stroke: #000000; stroke-width: 0.6"/>
      </g>
     </g>
    </g>
    <g id="xtick_10">
     <g id="line2d_19">
      <path d="M 440.964558 476.277656 
L 440.964558 36.32 
" clip-path="url(#p9d012f88aa)" style="fill: none; stroke: #e5e7eb; stroke-opacity: 0.7; stroke-width: 0.45; stroke-linecap: square"/>
     </g>
     <g id="line2d_20">
      <g>
       <use xlink:href="#mcbd7879cc7" x="440.964558" y="476.277656" style="stroke: #000000; stroke-width: 0.6"/>
      </g>
     </g>
    </g>
    <g id="xtick_11">
     <g id="line2d_21">
      <path d="M 462.572346 476.277656 
L 462.572346 36.32 
" clip-path="url(#p9d012f88aa)" style="fill: none; stroke: #e5e7eb; stroke-opacity: 0.7; stroke-width: 0.45; stroke-linecap: square"/>
     </g>
     <g id="line2d_22">
      <g>
       <use xlink:href="#mcbd7879cc7" x="462.572346" y="476.277656" style="stroke: #000000; stroke-width: 0.6"/>
      </g>
     </g>
    </g>
    <g id="xtick_12">
     <g id="line2d_23">
      <path d="M 609.06191 476.277656 
L 609.06191 36.32 
" clip-path="url(#p9d012f88aa)" style="fill: none; stroke: #e5e7eb; stroke-opacity: 0.7; stroke-width: 0.45; stroke-linecap: square"/>
     </g>
     <g id="line2d_24">
      <g>
       <use xlink:href="#mcbd7879cc7" x="609.06191" y="476.277656" style="stroke: #000000; stroke-width: 0.6"/>
      </g>
     </g>
    </g>
    <g id="xtick_13">
     <g id="line2d_25">
      <path d="M 683.446173 476.277656 
L 683.446173 36.32 
" clip-path="url(#p9d012f88aa)" style="fill: none; stroke: #e5e7eb; stroke-opacity: 0.7; stroke-width: 0.45; stroke-linecap: square"/>
     </g>
     <g id="line2d_26">
      <g>
       <use xlink:href="#mcbd7879cc7" x="683.446173" y="476.277656" style="stroke: #000000; stroke-width: 0.6"/>
      </g>
     </g>
    </g>
    <g id="xtick_14">
     <g id="line2d_27">
      <path d="M 736.222648 476.277656 
L 736.222648 36.32 
" clip-path="url(#p9d012f88aa)" style="fill: none; stroke: #e5e7eb; stroke-opacity: 0.7; stroke-width: 0.45; stroke-linecap: square"/>
     </g>
     <g id="line2d_28">
      <g>
       <use xlink:href="#mcbd7879cc7" x="736.222648" y="476.277656" style="stroke: #000000; stroke-width: 0.6"/>
      </g>
     </g>
    </g>
    <g id="xtick_15">
     <g id="line2d_29">
      <path d="M 777.159262 476.277656 
L 777.159262 36.32 
" clip-path="url(#p9d012f88aa)" style="fill: none; stroke: #e5e7eb; stroke-opacity: 0.7; stroke-width: 0.45; stroke-linecap: square"/>
     </g>
     <g id="line2d_30">
      <g>
       <use xlink:href="#mcbd7879cc7" x="777.159262" y="476.277656" style="stroke: #000000; stroke-width: 0.6"/>
      </g>
     </g>
    </g>
    <g id="xtick_16">
     <g id="line2d_31">
      <path d="M 810.606911 476.277656 
L 810.606911 36.32 
" clip-path="url(#p9d012f88aa)" style="fill: none; stroke: #e5e7eb; stroke-opacity: 0.7; stroke-width: 0.45; stroke-linecap: square"/>
     </g>
     <g id="line2d_32">
      <g>
       <use xlink:href="#mcbd7879cc7" x="810.606911" y="476.277656" style="stroke: #000000; stroke-width: 0.6"/>
      </g>
     </g>
    </g>
    <g id="xtick_17">
     <g id="line2d_33">
      <path d="M 838.886496 476.277656 
L 838.886496 36.32 
" clip-path="url(#p9d012f88aa)" style="fill: none; stroke: #e5e7eb; stroke-opacity: 0.7; stroke-width: 0.45; stroke-linecap: square"/>
     </g>
     <g id="line2d_34">
      <g>
       <use xlink:href="#mcbd7879cc7" x="838.886496" y="476.277656" style="stroke: #000000; stroke-width: 0.6"/>
      </g>
     </g>
    </g>
    <g id="xtick_18">
     <g id="line2d_35">
      <path d="M 863.383386 476.277656 
L 863.383386 36.32 
" clip-path="url(#p9d012f88aa)" style="fill: none; stroke: #e5e7eb; stroke-opacity: 0.7; stroke-width: 0.45; stroke-linecap: square"/>
     </g>
     <g id="line2d_36">
      <g>
       <use xlink:href="#mcbd7879cc7" x="863.383386" y="476.277656" style="stroke: #000000; stroke-width: 0.6"/>
      </g>
     </g>
    </g>
    <g id="xtick_19">
     <g id="line2d_37">
      <path d="M 884.991174 476.277656 
L 884.991174 36.32 
" clip-path="url(#p9d012f88aa)" style="fill: none; stroke: #e5e7eb; stroke-opacity: 0.7; stroke-width: 0.45; stroke-linecap: square"/>
     </g>
     <g id="line2d_38">
      <g>
       <use xlink:href="#mcbd7879cc7" x="884.991174" y="476.277656" style="stroke: #000000; stroke-width: 0.6"/>
      </g>
     </g>
    </g>
    <g id="text_4">
     <!-- Arithmetic Intensity (FLOP/Byte) -->
     <g transform="translate(401.474609 504.876094) scale(0.1 -0.1)">
      <defs>
       <path id="DejaVuSans-24" d="M 2188 4044 
L 1331 1722 
L 3047 1722 
L 2188 4044 
z
M 1831 4666 
L 2547 4666 
L 4325 0 
L 3669 0 
L 3244 1197 
L 1141 1197 
L 716 0 
L 50 0 
L 1831 4666 
z
" transform="scale(0.015625)"/>
       <path id="DejaVuSans-55" d="M 2631 2963 
Q 2534 3019 2420 3045 
Q 2306 3072 2169 3072 
Q 1681 3072 1420 2755 
Q 1159 2438 1159 1844 
L 1159 0 
L 581 0 
L 581 3500 
L 1159 3500 
L 1159 2956 
Q 1341 3275 1631 3429 
Q 1922 3584 2338 3584 
Q 2397 3584 2469 3576 
Q 2541 3569 2628 3553 
L 2631 2963 
z
" transform="scale(0.015625)"/>
       <path id="DejaVuSans-4c" d="M 603 3500 
L 1178 3500 
L 1178 0 
L 603 0 
L 603 3500 
z
M 603 4863 
L 1178 4863 
L 1178 4134 
L 603 4134 
L 603 4863 
z
" transform="scale(0.015625)"/>
       <path id="DejaVuSans-57" d="M 1172 4494 
L 1172 3500 
L 2356 3500 
L 2356 3053 
L 1172 3053 
L 1172 1153 
Q 1172 725 1289 603 
Q 1406 481 1766 481 
L 2356 481 
L 2356 0 
L 1766 0 
Q 1100 0 847 248 
Q 594 497 594 1153 
L 594 3053 
L 172 3053 
L 172 3500 
L 594 3500 
L 594 4494 
L 1172 4494 
z
" transform="scale(0.015625)"/>
       <path id="DejaVuSans-4b" d="M 3513 2113 
L 3513 0 
L 2938 0 
L 2938 2094 
Q 2938 2591 2744 2837 
Q 2550 3084 2163 3084 
Q 1697 3084 1428 2787 
Q 1159 2491 1159 1978 
L 1159 0 
L 581 0 
L 581 4863 
L 1159 4863 
L 1159 2956 
Q 1366 3272 1645 3428 
Q 1925 3584 2291 3584 
Q 2894 3584 3203 3211 
Q 3513 2838 3513 2113 
z
" transform="scale(0.015625)"/>
       <path id="DejaVuSans-48" d="M 3597 1894 
L 3597 1613 
L 953 1613 
Q 991 1019 1311 708 
Q 1631 397 2203 397 
Q 2534 397 2845 478 
Q 3156 559 3463 722 
L 3463 178 
Q 3153 47 2828 -22 
Q 2503 -91 2169 -91 
Q 1331 -91 842 396 
Q 353 884 353 1716 
Q 353 2575 817 3079 
Q 1281 3584 2069 3584 
Q 2775 3584 3186 3129 
Q 3597 2675 3597 1894 
z
M 3022 2063 
Q 3016 2534 2758 2815 
Q 2500 3097 2075 3097 
Q 1594 3097 1305 2825 
Q 1016 2553 972 2059 
L 3022 2063 
z
" transform="scale(0.015625)"/>
       <path id="DejaVuSans-46" d="M 3122 3366 
L 3122 2828 
Q 2878 2963 2633 3030 
Q 2388 3097 2138 3097 
Q 1578 3097 1268 2742 
Q 959 2388 959 1747 
Q 959 1106 1268 751 
Q 1578 397 2138 397 
Q 2388 397 2633 464 
Q 2878 531 3122 666 
L 3122 134 
Q 2881 22 2623 -34 
Q 2366 -91 2075 -91 
Q 1284 -91 818 406 
Q 353 903 353 1747 
Q 353 2603 823 3093 
Q 1294 3584 2113 3584 
Q 2378 3584 2631 3529 
Q 2884 3475 3122 3366 
z
" transform="scale(0.015625)"/>
       <path id="DejaVuSans-3" transform="scale(0.015625)"/>
       <path id="DejaVuSans-2c" d="M 628 4666 
L 1259 4666 
L 1259 0 
L 628 0 
L 628 4666 
z
" transform="scale(0.015625)"/>
       <path id="DejaVuSans-51" d="M 3513 2113 
L 3513 0 
L 2938 0 
L 2938 2094 
Q 2938 2591 2744 2837 
Q 2550 3084 2163 3084 
Q 1697 3084 1428 2787 
Q 1159 2491 1159 1978 
L 1159 0 
L 581 0 
L 581 3500 
L 1159 3500 
L 1159 2956 
Q 1366 3272 1645 3428 
Q 1925 3584 2291 3584 
Q 2894 3584 3203 3211 
Q 3513 2838 3513 2113 
z
" transform="scale(0.015625)"/>
       <path id="DejaVuSans-56" d="M 2834 3397 
L 2834 2853 
Q 2591 2978 2328 3040 
Q 2066 3103 1784 3103 
Q 1356 3103 1142 2972 
Q 928 2841 928 2578 
Q 928 2378 1081 2264 
Q 1234 2150 1697 2047 
L 1894 2003 
Q 2506 1872 2764 1633 
Q 3022 1394 3022 966 
Q 3022 478 2636 193 
Q 2250 -91 1575 -91 
Q 1294 -91 989 -36 
Q 684 19 347 128 
L 347 722 
Q 666 556 975 473 
Q 1284 391 1588 391 
Q 1994 391 2212 530 
Q 2431 669 2431 922 
Q 2431 1156 2273 1281 
Q 2116 1406 1581 1522 
L 1381 1569 
Q 847 1681 609 1914 
Q 372 2147 372 2553 
Q 372 3047 722 3315 
Q 1072 3584 1716 3584 
Q 2034 3584 2315 3537 
Q 2597 3491 2834 3397 
z
" transform="scale(0.015625)"/>
       <path id="DejaVuSans-5c" d="M 2059 -325 
Q 1816 -950 1584 -1140 
Q 1353 -1331 966 -1331 
L 506 -1331 
L 506 -850 
L 844 -850 
Q 1081 -850 1212 -737 
Q 1344 -625 1503 -206 
L 1606 56 
L 191 3500 
L 800 3500 
L 1894 763 
L 2988 3500 
L 3597 3500 
L 2059 -325 
z
" transform="scale(0.015625)"/>
       <path id="DejaVuSans-b" d="M 1984 4856 
Q 1566 4138 1362 3434 
Q 1159 2731 1159 2009 
Q 1159 1288 1364 580 
Q 1569 -128 1984 -844 
L 1484 -844 
Q 1016 -109 783 600 
Q 550 1309 550 2009 
Q 550 2706 781 3412 
Q 1013 4119 1484 4856 
L 1984 4856 
z
" transform="scale(0.015625)"/>
       <path id="DejaVuSans-29" d="M 628 4666 
L 3309 4666 
L 3309 4134 
L 1259 4134 
L 1259 2759 
L 3109 2759 
L 3109 2228 
L 1259 2228 
L 1259 0 
L 628 0 
L 628 4666 
z
" transform="scale(0.015625)"/>
       <path id="DejaVuSans-2f" d="M 628 4666 
L 1259 4666 
L 1259 531 
L 3531 531 
L 3531 0 
L 628 0 
L 628 4666 
z
" transform="scale(0.015625)"/>
       <path id="DejaVuSans-32" d="M 2522 4238 
Q 1834 4238 1429 3725 
Q 1025 3213 1025 2328 
Q 1025 1447 1429 934 
Q 1834 422 2522 422 
Q 3209 422 3611 934 
Q 4013 1447 4013 2328 
Q 4013 3213 3611 3725 
Q 3209 4238 2522 4238 
z
M 2522 4750 
Q 3503 4750 4090 4092 
Q 4678 3434 4678 2328 
Q 4678 1225 4090 567 
Q 3503 -91 2522 -91 
Q 1538 -91 948 565 
Q 359 1222 359 2328 
Q 359 3434 948 4092 
Q 1538 4750 2522 4750 
z
" transform="scale(0.015625)"/>
       <path id="DejaVuSans-33" d="M 1259 4147 
L 1259 2394 
L 2053 2394 
Q 2494 2394 2734 2622 
Q 2975 2850 2975 3272 
Q 2975 3691 2734 3919 
Q 2494 4147 2053 4147 
L 1259 4147 
z
M 628 4666 
L 2053 4666 
Q 2838 4666 3239 4311 
Q 3641 3956 3641 3272 
Q 3641 2581 3239 2228 
Q 2838 1875 2053 1875 
L 1259 1875 
L 1259 0 
L 628 0 
L 628 4666 
z
" transform="scale(0.015625)"/>
       <path id="DejaVuSans-12" d="M 1625 4666 
L 2156 4666 
L 531 -594 
L 0 -594 
L 1625 4666 
z
" transform="scale(0.015625)"/>
       <path id="DejaVuSans-25" d="M 1259 2228 
L 1259 519 
L 2272 519 
Q 2781 519 3026 730 
Q 3272 941 3272 1375 
Q 3272 1813 3026 2020 
Q 2781 2228 2272 2228 
L 1259 2228 
z
M 1259 4147 
L 1259 2741 
L 2194 2741 
Q 2656 2741 2882 2914 
Q 3109 3088 3109 3444 
Q 3109 3797 2882 3972 
Q 2656 4147 2194 4147 
L 1259 4147 
z
M 628 4666 
L 2241 4666 
Q 2963 4666 3353 4366 
Q 3744 4066 3744 3513 
Q 3744 3084 3544 2831 
Q 3344 2578 2956 2516 
Q 3422 2416 3680 2098 
Q 3938 1781 3938 1306 
Q 3938 681 3513 340 
Q 3088 0 2303 0 
L 628 0 
L 628 4666 
z
" transform="scale(0.015625)"/>
       <path id="DejaVuSans-c" d="M 513 4856 
L 1013 4856 
Q 1481 4119 1714 3412 
Q 1947 2706 1947 2009 
Q 1947 1309 1714 600 
Q 1481 -109 1013 -844 
L 513 -844 
Q 928 -128 1133 580 
Q 1338 1288 1338 2009 
Q 1338 2731 1133 3434 
Q 928 4138 513 4856 
z
" transform="scale(0.015625)"/>
      </defs>
      <use xlink:href="#DejaVuSans-24"/>
      <use xlink:href="#DejaVuSans-55" transform="translate(68.40625 0)"/>
      <use xlink:href="#DejaVuSans-4c" transform="translate(109.515625 0)"/>
      <use xlink:href="#DejaVuSans-57" transform="translate(137.296875 0)"/>
      <use xlink:href="#DejaVuSans-4b" transform="translate(176.5 0)"/>
      <use xlink:href="#DejaVuSans-50" transform="translate(239.875 0)"/>
      <use xlink:href="#DejaVuSans-48" transform="translate(337.28125 0)"/>
      <use xlink:href="#DejaVuSans-57" transform="translate(398.8125 0)"/>
      <use xlink:href="#DejaVuSans-4c" transform="translate(438.015625 0)"/>
      <use xlink:href="#DejaVuSans-46" transform="translate(465.796875 0)"/>
      <use xlink:href="#DejaVuSans-3" transform="translate(520.78125 0)"/>
      <use xlink:href="#DejaVuSans-2c" transform="translate(552.5625 0)"/>
      <use xlink:href="#DejaVuSans-51" transform="translate(582.0625 0)"/>
      <use xlink:href="#DejaVuSans-57" transform="translate(645.4375 0)"/>
      <use xlink:href="#DejaVuSans-48" transform="translate(684.640625 0)"/>
      <use xlink:href="#DejaVuSans-51" transform="translate(746.171875 0)"/>
      <use xlink:href="#DejaVuSans-56" transform="translate(809.546875 0)"/>
      <use xlink:href="#DejaVuSans-4c" transform="translate(861.640625 0)"/>
      <use xlink:href="#DejaVuSans-57" transform="translate(889.421875 0)"/>
      <use xlink:href="#DejaVuSans-5c" transform="translate(928.625 0)"/>
      <use xlink:href="#DejaVuSans-3" transform="translate(987.8125 0)"/>
      <use xlink:href="#DejaVuSans-b" transform="translate(1019.59375 0)"/>
      <use xlink:href="#DejaVuSans-29" transform="translate(1058.609375 0)"/>
      <use xlink:href="#DejaVuSans-2f" transform="translate(1116.125 0)"/>
      <use xlink:href="#DejaVuSans-32" transform="translate(1168.28125 0)"/>
      <use xlink:href="#DejaVuSans-33" transform="translate(1247 0)"/>
      <use xlink:href="#DejaVuSans-12" transform="translate(1307.296875 0)"/>
      <use xlink:href="#DejaVuSans-25" transform="translate(1340.984375 0)"/>
      <use xlink:href="#DejaVuSans-5c" transform="translate(1409.59375 0)"/>
      <use xlink:href="#DejaVuSans-57" transform="translate(1468.78125 0)"/>
      <use xlink:href="#DejaVuSans-48" transform="translate(1507.984375 0)"/>
      <use xlink:href="#DejaVuSans-c" transform="translate(1569.515625 0)"/>
     </g>
    </g>
   </g>
   <g id="matplotlib.axis_2">
    <g id="ytick_1">
     <g id="line2d_39">
      <path d="M 59.482344 417.617898 
L 904.32 417.617898 
" clip-path="url(#p9d012f88aa)" style="fill: none; stroke: #d1d5db; stroke-width: 0.8; stroke-linecap: square"/>
     </g>
     <g id="line2d_40">
      <defs>
       <path id="m32813e28e5" d="M 0 0 
L -3.5 0 
" style="stroke: #000000; stroke-width: 0.8"/>
      </defs>
      <g>
       <use xlink:href="#m32813e28e5" x="59.482344" y="417.617898" style="stroke: #000000; stroke-width: 0.8"/>
      </g>
     </g>
     <g id="text_5">
      <!-- 100G -->
      <g transform="translate(25.646406 421.416726) scale(0.1 -0.1)">
       <defs>
        <path id="DejaVuSans-2a" d="M 3809 666 
L 3809 1919 
L 2778 1919 
L 2778 2438 
L 4434 2438 
L 4434 434 
Q 4069 175 3628 42 
Q 3188 -91 2688 -91 
Q 1594 -91 976 548 
Q 359 1188 359 2328 
Q 359 3472 976 4111 
Q 1594 4750 2688 4750 
Q 3144 4750 3555 4637 
Q 3966 4525 4313 4306 
L 4313 3634 
Q 3963 3931 3569 4081 
Q 3175 4231 2741 4231 
Q 1884 4231 1454 3753 
Q 1025 3275 1025 2328 
Q 1025 1384 1454 906 
Q 1884 428 2741 428 
Q 3075 428 3337 486 
Q 3600 544 3809 666 
z
" transform="scale(0.015625)"/>
       </defs>
       <use xlink:href="#DejaVuSans-14"/>
       <use xlink:href="#DejaVuSans-13" transform="translate(63.625 0)"/>
       <use xlink:href="#DejaVuSans-13" transform="translate(127.25 0)"/>
       <use xlink:href="#DejaVuSans-2a" transform="translate(190.875 0)"/>
      </g>
     </g>
    </g>
    <g id="ytick_2">
     <g id="line2d_41">
      <path d="M 59.482344 159.482084 
L 904.32 159.482084 
" clip-path="url(#p9d012f88aa)" style="fill: none; stroke: #d1d5db; stroke-width: 0.8; stroke-linecap: square"/>
     </g>
     <g id="line2d_42">
      <g>
       <use xlink:href="#m32813e28e5" x="59.482344" y="159.482084" style="stroke: #000000; stroke-width: 0.8"/>
      </g>
     </g>
     <g id="text_6">
      <!-- 1T -->
      <g transform="translate(40.012031 163.280912) scale(0.1 -0.1)">
       <defs>
        <path id="DejaVuSans-37" d="M -19 4666 
L 3928 4666 
L 3928 4134 
L 2272 4134 
L 2272 0 
L 1638 0 
L 1638 4134 
L -19 4134 
L -19 4666 
z
" transform="scale(0.015625)"/>
       </defs>
       <use xlink:href="#DejaVuSans-14"/>
       <use xlink:href="#DejaVuSans-37" transform="translate(63.625 0)"/>
      </g>
     </g>
    </g>
    <g id="ytick_3">
     <g id="line2d_43">
      <path d="M 59.482344 474.885005 
L 904.32 474.885005 
" clip-path="url(#p9d012f88aa)" style="fill: none; stroke: #e5e7eb; stroke-opacity: 0.7; stroke-width: 0.45; stroke-linecap: square"/>
     </g>
     <g id="line2d_44">
      <defs>
       <path id="mfbb907d3c0" d="M 0 0 
L -2 0 
" style="stroke: #000000; stroke-width: 0.6"/>
      </defs>
      <g>
       <use xlink:href="#mfbb907d3c0" x="59.482344" y="474.885005" style="stroke: #000000; stroke-width: 0.6"/>
      </g>
     </g>
    </g>
    <g id="ytick_4">
     <g id="line2d_45">
      <path d="M 59.482344 457.603641 
L 904.32 457.603641 
" clip-path="url(#p9d012f88aa)" style="fill: none; stroke: #e5e7eb; stroke-opacity: 0.7; stroke-width: 0.45; stroke-linecap: square"/>
     </g>
     <g id="line2d_46">
      <g>
       <use xlink:href="#mfbb907d3c0" x="59.482344" y="457.603641" style="stroke: #000000; stroke-width: 0.6"/>
      </g>
     </g>
    </g>
    <g id="ytick_5">
     <g id="line2d_47">
      <path d="M 59.482344 442.633843 
L 904.32 442.633843 
" clip-path="url(#p9d012f88aa)" style="fill: none; stroke: #e5e7eb; stroke-opacity: 0.7; stroke-width: 0.45; stroke-linecap: square"/>
     </g>
     <g id="line2d_48">
      <g>
       <use xlink:href="#mfbb907d3c0" x="59.482344" y="442.633843" style="stroke: #000000; stroke-width: 0.6"/>
      </g>
     </g>
    </g>
    <g id="ytick_6">
     <g id="line2d_49">
      <path d="M 59.482344 429.429545 
L 904.32 429.429545 
" clip-path="url(#p9d012f88aa)" style="fill: none; stroke: #e5e7eb; stroke-opacity: 0.7; stroke-width: 0.45; stroke-linecap: square"/>
     </g>
     <g id="line2d_50">
      <g>
       <use xlink:href="#mfbb907d3c0" x="59.482344" y="429.429545" style="stroke: #000000; stroke-width: 0.6"/>
      </g>
     </g>
    </g>
    <g id="ytick_7">
     <g id="line2d_51">
      <path d="M 59.482344 339.911275 
L 904.32 339.911275 
" clip-path="url(#p9d012f88aa)" style="fill: none; stroke: #e5e7eb; stroke-opacity: 0.7; stroke-width: 0.45; stroke-linecap: square"/>
     </g>
     <g id="line2d_52">
      <g>
       <use xlink:href="#mfbb907d3c0" x="59.482344" y="339.911275" style="stroke: #000000; stroke-width: 0.6"/>
      </g>
     </g>
    </g>
    <g id="ytick_8">
     <g id="line2d_53">
      <path d="M 59.482344 294.455814 
L 904.32 294.455814 
" clip-path="url(#p9d012f88aa)" style="fill: none; stroke: #e5e7eb; stroke-opacity: 0.7; stroke-width: 0.45; stroke-linecap: square"/>
     </g>
     <g id="line2d_54">
      <g>
       <use xlink:href="#mfbb907d3c0" x="59.482344" y="294.455814" style="stroke: #000000; stroke-width: 0.6"/>
      </g>
     </g>
    </g>
    <g id="ytick_9">
     <g id="line2d_55">
      <path d="M 59.482344 262.204652 
L 904.32 262.204652 
" clip-path="url(#p9d012f88aa)" style="fill: none; stroke: #e5e7eb; stroke-opacity: 0.7; stroke-width: 0.45; stroke-linecap: square"/>
     </g>
     <g id="line2d_56">
      <g>
       <use xlink:href="#mfbb907d3c0" x="59.482344" y="262.204652" style="stroke: #000000; stroke-width: 0.6"/>
      </g>
     </g>
    </g>
    <g id="ytick_10">
     <g id="line2d_57">
      <path d="M 59.482344 237.188707 
L 904.32 237.188707 
" clip-path="url(#p9d012f88aa)" style="fill: none; stroke: #e5e7eb; stroke-opacity: 0.7; stroke-width: 0.45; stroke-linecap: square"/>
     </g>
     <g id="line2d_58">
      <g>
       <use xlink:href="#mfbb907d3c0" x="59.482344" y="237.188707" style="stroke: #000000; stroke-width: 0.6"/>
      </g>
     </g>
    </g>
    <g id="ytick_11">
     <g id="line2d_59">
      <path d="M 59.482344 216.749191 
L 904.32 216.749191 
" clip-path="url(#p9d012f88aa)" style="fill: none; stroke: #e5e7eb; stroke-opacity: 0.7; stroke-width: 0.45; stroke-linecap: square"/>
     </g>
     <g id="line2d_60">
      <g>
       <use xlink:href="#mfbb907d3c0" x="59.482344" y="216.749191" style="stroke: #000000; stroke-width: 0.6"/>
      </g>
     </g>
    </g>
    <g id="ytick_12">
     <g id="line2d_61">
      <path d="M 59.482344 199.467827 
L 904.32 199.467827 
" clip-path="url(#p9d012f88aa)" style="fill: none; stroke: #e5e7eb; stroke-opacity: 0.7; stroke-width: 0.45; stroke-linecap: square"/>
     </g>
     <g id="line2d_62">
      <g>
       <use xlink:href="#mfbb907d3c0" x="59.482344" y="199.467827" style="stroke: #000000; stroke-width: 0.6"/>
      </g>
     </g>
    </g>
    <g id="ytick_13">
     <g id="line2d_63">
      <path d="M 59.482344 184.498029 
L 904.32 184.498029 
" clip-path="url(#p9d012f88aa)" style="fill: none; stroke: #e5e7eb; stroke-opacity: 0.7; stroke-width: 0.45; stroke-linecap: square"/>
     </g>
     <g id="line2d_64">
      <g>
       <use xlink:href="#mfbb907d3c0" x="59.482344" y="184.498029" style="stroke: #000000; stroke-width: 0.6"/>
      </g>
     </g>
    </g>
    <g id="ytick_14">
     <g id="line2d_65">
      <path d="M 59.482344 171.293731 
L 904.32 171.293731 
" clip-path="url(#p9d012f88aa)" style="fill: none; stroke: #e5e7eb; stroke-opacity: 0.7; stroke-width: 0.45; stroke-linecap: square"/>
     </g>
     <g id="line2d_66">
      <g>
       <use xlink:href="#mfbb907d3c0" x="59.482344" y="171.293731" style="stroke: #000000; stroke-width: 0.6"/>
      </g>
     </g>
    </g>
    <g id="ytick_15">
     <g id="line2d_67">
      <path d="M 59.482344 81.775461 
L 904.32 81.775461 
" clip-path="url(#p9d012f88aa)" style="fill: none; stroke: #e5e7eb; stroke-opacity: 0.7; stroke-width: 0.45; stroke-linecap: square"/>
     </g>
     <g id="line2d_68">
      <g>
       <use xlink:href="#mfbb907d3c0" x="59.482344" y="81.775461" style="stroke: #000000; stroke-width: 0.6"/>
      </g>
     </g>
    </g>
    <g id="ytick_16">
     <g id="line2d_69">
      <path d="M 59.482344 36.32 
L 904.32 36.32 
" clip-path="url(#p9d012f88aa)" style="fill: none; stroke: #e5e7eb; stroke-opacity: 0.7; stroke-width: 0.45; stroke-linecap: square"/>
     </g>
     <g id="line2d_70">
      <g>
       <use xlink:href="#mfbb907d3c0" x="59.482344" y="36.32" style="stroke: #000000; stroke-width: 0.6"/>
      </g>
     </g>
    </g>
    <g id="text_7">
     <!-- Attainable Performance (FLOP/s) -->
     <g transform="translate(19.244062 337.366016) rotate(-90) scale(0.1 -0.1)">
      <defs>
       <path id="DejaVuSans-44" d="M 2194 1759 
Q 1497 1759 1228 1600 
Q 959 1441 959 1056 
Q 959 750 1161 570 
Q 1363 391 1709 391 
Q 2188 391 2477 730 
Q 2766 1069 2766 1631 
L 2766 1759 
L 2194 1759 
z
M 3341 1997 
L 3341 0 
L 2766 0 
L 2766 531 
Q 2569 213 2275 61 
Q 1981 -91 1556 -91 
Q 1019 -91 701 211 
Q 384 513 384 1019 
Q 384 1609 779 1909 
Q 1175 2209 1959 2209 
L 2766 2209 
L 2766 2266 
Q 2766 2663 2505 2880 
Q 2244 3097 1772 3097 
Q 1472 3097 1187 3025 
Q 903 2953 641 2809 
L 641 3341 
Q 956 3463 1253 3523 
Q 1550 3584 1831 3584 
Q 2591 3584 2966 3190 
Q 3341 2797 3341 1997 
z
" transform="scale(0.015625)"/>
       <path id="DejaVuSans-45" d="M 3116 1747 
Q 3116 2381 2855 2742 
Q 2594 3103 2138 3103 
Q 1681 3103 1420 2742 
Q 1159 2381 1159 1747 
Q 1159 1113 1420 752 
Q 1681 391 2138 391 
Q 2594 391 2855 752 
Q 3116 1113 3116 1747 
z
M 1159 2969 
Q 1341 3281 1617 3432 
Q 1894 3584 2278 3584 
Q 2916 3584 3314 3078 
Q 3713 2572 3713 1747 
Q 3713 922 3314 415 
Q 2916 -91 2278 -91 
Q 1894 -91 1617 61 
Q 1341 213 1159 525 
L 1159 0 
L 581 0 
L 581 4863 
L 1159 4863 
L 1159 2969 
z
" transform="scale(0.015625)"/>
       <path id="DejaVuSans-4f" d="M 603 4863 
L 1178 4863 
L 1178 0 
L 603 0 
L 603 4863 
z
" transform="scale(0.015625)"/>
       <path id="DejaVuSans-49" d="M 2375 4863 
L 2375 4384 
L 1825 4384 
Q 1516 4384 1395 4259 
Q 1275 4134 1275 3809 
L 1275 3500 
L 2222 3500 
L 2222 3053 
L 1275 3053 
L 1275 0 
L 697 0 
L 697 3053 
L 147 3053 
L 147 3500 
L 697 3500 
L 697 3744 
Q 697 4328 969 4595 
Q 1241 4863 1831 4863 
L 2375 4863 
z
" transform="scale(0.015625)"/>
       <path id="DejaVuSans-52" d="M 1959 3097 
Q 1497 3097 1228 2736 
Q 959 2375 959 1747 
Q 959 1119 1226 758 
Q 1494 397 1959 397 
Q 2419 397 2687 759 
Q 2956 1122 2956 1747 
Q 2956 2369 2687 2733 
Q 2419 3097 1959 3097 
z
M 1959 3584 
Q 2709 3584 3137 3096 
Q 3566 2609 3566 1747 
Q 3566 888 3137 398 
Q 2709 -91 1959 -91 
Q 1206 -91 779 398 
Q 353 888 353 1747 
Q 353 2609 779 3096 
Q 1206 3584 1959 3584 
z
" transform="scale(0.015625)"/>
      </defs>
      <use xlink:href="#DejaVuSans-24"/>
      <use xlink:href="#DejaVuSans-57" transform="translate(66.65625 0)"/>
      <use xlink:href="#DejaVuSans-57" transform="translate(105.859375 0)"/>
      <use xlink:href="#DejaVuSans-44" transform="translate(145.0625 0)"/>
      <use xlink:href="#DejaVuSans-4c" transform="translate(206.34375 0)"/>
      <use xlink:href="#DejaVuSans-51" transform="translate(234.125 0)"/>
      <use xlink:href="#DejaVuSans-44" transform="translate(297.5 0)"/>
      <use xlink:href="#DejaVuSans-45" transform="translate(358.78125 0)"/>
      <use xlink:href="#DejaVuSans-4f" transform="translate(422.265625 0)"/>
      <use xlink:href="#DejaVuSans-48" transform="translate(450.046875 0)"/>
      <use xlink:href="#DejaVuSans-3" transform="translate(511.578125 0)"/>
      <use xlink:href="#DejaVuSans-33" transform="translate(543.359375 0)"/>
      <use xlink:href="#DejaVuSans-48" transform="translate(600.09375 0)"/>
      <use xlink:href="#DejaVuSans-55" transform="translate(661.625 0)"/>
      <use xlink:href="#DejaVuSans-49" transform="translate(702.734375 0)"/>
      <use xlink:href="#DejaVuSans-52" transform="translate(737.9375 0)"/>
      <use xlink:href="#DejaVuSans-55" transform="translate(799.125 0)"/>
      <use xlink:href="#DejaVuSans-50" transform="translate(838.484375 0)"/>
      <use xlink:href="#DejaVuSans-44" transform="translate(935.890625 0)"/>
      <use xlink:href="#DejaVuSans-51" transform="translate(997.171875 0)"/>
      <use xlink:href="#DejaVuSans-46" transform="translate(1060.546875 0)"/>
      <use xlink:href="#DejaVuSans-48" transform="translate(1115.53125 0)"/>
      <use xlink:href="#DejaVuSans-3" transform="translate(1177.0625 0)"/>
      <use xlink:href="#DejaVuSans-b" transform="translate(1208.84375 0)"/>
      <use xlink:href="#DejaVuSans-29" transform="translate(1247.859375 0)"/>
      <use xlink:href="#DejaVuSans-2f" transform="translate(1305.375 0)"/>
      <use xlink:href="#DejaVuSans-32" transform="translate(1357.53125 0)"/>
      <use xlink:href="#DejaVuSans-33" transform="translate(1436.25 0)"/>
      <use xlink:href="#DejaVuSans-12" transform="translate(1496.546875 0)"/>
      <use xlink:href="#DejaVuSans-56" transform="translate(1530.234375 0)"/>
      <use xlink:href="#DejaVuSans-c" transform="translate(1582.328125 0)"/>
     </g>
    </g>
   </g>
   <g id="line2d_71">
    <path d="M 59.482344 442.633843 
L 555.47314 139.538953 
L 557.126443 139.042568 
L 904.32 139.042568 
L 904.32 139.042568 
" clip-path="url(#p9d012f88aa)" style="fill: none; stroke: #2563eb; stroke-width: 2.2; stroke-linecap: square"/>
   </g>
   <g id="patch_3">
    <path d="M 59.482344 476.277656 
L 59.482344 36.32 
" style="fill: none; stroke: #000000; stroke-width: 0.8; stroke-linejoin: miter; stroke-linecap: square"/>
   </g>
   <g id="patch_4">
    <path d="M 904.32 476.277656 
L 904.32 36.32 
" style="fill: none; stroke: #000000; stroke-width: 0.8; stroke-linejoin: miter; stroke-linecap: square"/>
   </g>
   <g id="patch_5">
    <path d="M 59.482344 476.277656 
L 904.32 476.277656 
" style="fill: none; stroke: #000000; stroke-width: 0.8; stroke-linejoin: miter; stroke-linecap: square"/>
   </g>
   <g id="patch_6">
    <path d="M 59.482344 36.32 
L 904.32 36.32 
" style="fill: none; stroke: #000000; stroke-width: 0.8; stroke-linejoin: miter; stroke-linecap: square"/>
   </g>
   <g id="text_8">
    <!-- roofp -->
    <g transform="translate(462.403516 22.32) scale(0.15 -0.15)">
     <defs>
      <path id="DejaVuSans-53" d="M 1159 525 
L 1159 -1331 
L 581 -1331 
L 581 3500 
L 1159 3500 
L 1159 2969 
Q 1341 3281 1617 3432 
Q 1894 3584 2278 3584 
Q 2916 3584 3314 3078 
Q 3713 2572 3713 1747 
Q 3713 922 3314 415 
Q 2916 -91 2278 -91 
Q 1894 -91 1617 61 
Q 1341 213 1159 525 
z
M 3116 1747 
Q 3116 2381 2855 2742 
Q 2594 3103 2138 3103 
Q 1681 3103 1420 2742 
Q 1159 2381 1159 1747 
Q 1159 1113 1420 752 
Q 1681 391 2138 391 
Q 2594 391 2855 752 
Q 3116 1113 3116 1747 
z
" transform="scale(0.015625)"/>
     </defs>
     <use xlink:href="#DejaVuSans-55"/>
     <use xlink:href="#DejaVuSans-52" transform="translate(38.90625 0)"/>
     <use xlink:href="#DejaVuSans-52" transform="translate(100.09375 0)"/>
     <use xlink:href="#DejaVuSans-49" transform="translate(161.28125 0)"/>
     <use xlink:href="#DejaVuSans-53" transform="translate(196.484375 0)"/>
    </g>
   </g>
   <g id="PathCollection_1">
    <defs>
     <path id="mb95ec79781" d="M 0 3 
C 0.795609 3 1.55874 2.683901 2.12132 2.12132 
C 2.683901 1.55874 3 0.795609 3 0 
C 3 -0.795609 2.683901 -1.55874 2.12132 -2.12132 
C 1.55874 -2.683901 0.795609 -3 0 -3 
C -0.795609 -3 -1.55874 -2.683901 -2.12132 -2.12132 
C -2.683901 -1.55874 -3 -0.795609 -3 0 
C -3 0.795609 -2.683901 1.55874 -2.12132 2.12132 
C -1.55874 2.683901 -0.795609 3 0 3 
z
" style="stroke: #ffffff; stroke-width: 0.8"/>
    </defs>
    <g clip-path="url(#p9d012f88aa)">
     <use xlink:href="#mb95ec79781" x="556.285435" y="139.042568" style="fill: #2563eb; stroke: #ffffff; stroke-width: 0.8"/>
    </g>
   </g>
   <g id="legend_1">
    <g id="patch_7">
     <path d="M 702.86375 471.277656 
L 897.32 471.277656 
Q 899.32 471.277656 899.32 469.277656 
L 899.32 425.275312 
Q 899.32 423.275312 897.32 423.275312 
L 702.86375 423.275312 
Q 700.86375 423.275312 700.86375 425.275312 
L 700.86375 469.277656 
Q 700.86375 471.277656 702.86375 471.277656 
z
" style="fill: #ffffff; opacity: 0.8; stroke: #cccccc; stroke-linejoin: miter"/>
    </g>
    <g id="line2d_72">
     <path d="M 704.86375 431.37375 
L 714.86375 431.37375 
L 724.86375 431.37375 
" style="fill: none; stroke: #2563eb; stroke-width: 2.2; stroke-linecap: square"/>
    </g>
    <g id="text_9">
     <!-- Ideal roof (ridge=1.5 FLOP/Byte) -->
     <g transform="translate(732.86375 434.87375) scale(0.1 -0.1)">
      <defs>
       <path id="DejaVuSans-47" d="M 2906 2969 
L 2906 4863 
L 3481 4863 
L 3481 0 
L 2906 0 
L 2906 525 
Q 2725 213 2448 61 
Q 2172 -91 1784 -91 
Q 1150 -91 751 415 
Q 353 922 353 1747 
Q 353 2572 751 3078 
Q 1150 3584 1784 3584 
Q 2172 3584 2448 3432 
Q 2725 3281 2906 2969 
z
M 947 1747 
Q 947 1113 1208 752 
Q 1469 391 1925 391 
Q 2381 391 2643 752 
Q 2906 1113 2906 1747 
Q 2906 2381 2643 2742 
Q 2381 3103 1925 3103 
Q 1469 3103 1208 2742 
Q 947 2381 947 1747 
z
" transform="scale(0.015625)"/>
       <path id="DejaVuSans-4a" d="M 2906 1791 
Q 2906 2416 2648 2759 
Q 2391 3103 1925 3103 
Q 1463 3103 1205 2759 
Q 947 2416 947 1791 
Q 947 1169 1205 825 
Q 1463 481 1925 481 
Q 2391 481 2648 825 
Q 2906 1169 2906 1791 
z
M 3481 434 
Q 3481 -459 3084 -895 
Q 2688 -1331 1869 -1331 
Q 1566 -1331 1297 -1286 
Q 1028 -1241 775 -1147 
L 775 -588 
Q 1028 -725 1275 -790 
Q 1522 -856 1778 -856 
Q 2344 -856 2625 -561 
Q 2906 -266 2906 331 
L 2906 616 
Q 2728 306 2450 153 
Q 2172 0 1784 0 
Q 1141 0 747 490 
Q 353 981 353 1791 
Q 353 2603 747 3093 
Q 1141 3584 1784 3584 
Q 2172 3584 2450 3431 
Q 2728 3278 2906 2969 
L 2906 3500 
L 3481 3500 
L 3481 434 
z
" transform="scale(0.015625)"/>
       <path id="DejaVuSans-20" d="M 678 2906 
L 4684 2906 
L 4684 2381 
L 678 2381 
L 678 2906 
z
M 678 1631 
L 4684 1631 
L 4684 1100 
L 678 1100 
L 678 1631 
z
" transform="scale(0.015625)"/>
       <path id="DejaVuSans-11" d="M 684 794 
L 1344 794 
L 1344 0 
L 684 0 
L 684 794 
z
" transform="scale(0.015625)"/>
       <path id="DejaVuSans-18" d="M 691 4666 
L 3169 4666 
L 3169 4134 
L 1269 4134 
L 1269 2991 
Q 1406 3038 1543 3061 
Q 1681 3084 1819 3084 
Q 2600 3084 3056 2656 
Q 3513 2228 3513 1497 
Q 3513 744 3044 326 
Q 2575 -91 1722 -91 
Q 1428 -91 1123 -41 
Q 819 9 494 109 
L 494 744 
Q 775 591 1075 516 
Q 1375 441 1709 441 
Q 2250 441 2565 725 
Q 2881 1009 2881 1497 
Q 2881 1984 2565 2268 
Q 2250 2553 1709 2553 
Q 1456 2553 1204 2497 
Q 953 2441 691 2322 
L 691 4666 
z
" transform="scale(0.015625)"/>
      </defs>
      <use xlink:href="#DejaVuSans-2c"/>
      <use xlink:href="#DejaVuSans-47" transform="translate(29.5 0)"/>
      <use xlink:href="#DejaVuSans-48" transform="translate(92.984375 0)"/>
      <use xlink:href="#DejaVuSans-44" transform="translate(154.515625 0)"/>
      <use xlink:href="#DejaVuSans-4f" transform="translate(215.796875 0)"/>
      <use xlink:href="#DejaVuSans-3" transform="translate(243.578125 0)"/>
      <use xlink:href="#DejaVuSans-55" transform="translate(275.359375 0)"/>
      <use xlink:href="#DejaVuSans-52" transform="translate(314.265625 0)"/>
      <use xlink:href="#DejaVuSans-52" transform="translate(375.453125 0)"/>
      <use xlink:href="#DejaVuSans-49" transform="translate(436.640625 0)"/>
      <use xlink:href="#DejaVuSans-3" transform="translate(471.84375 0)"/>
      <use xlink:href="#DejaVuSans-b" transform="translate(503.625 0)"/>
      <use xlink:href="#DejaVuSans-55" transform="translate(542.640625 0)"/>
      <use xlink:href="#DejaVuSans-4c" transform="translate(583.75 0)"/>
      <use xlink:href="#DejaVuSans-47" transform="translate(611.53125 0)"/>
      <use xlink:href="#DejaVuSans-4a" transform="translate(675.015625 0)"/>
      <use xlink:href="#DejaVuSans-48" transform="translate(738.5 0)"/>
      <use xlink:href="#DejaVuSans-20" transform="translate(800.03125 0)"/>
      <use xlink:href="#DejaVuSans-14" transform="translate(883.828125 0)"/>
      <use xlink:href="#DejaVuSans-11" transform="translate(947.453125 0)"/>
      <use xlink:href="#DejaVuSans-18" transform="translate(979.234375 0)"/>
      <use xlink:href="#DejaVuSans-3" transform="translate(1042.859375 0)"/>
      <use xlink:href="#DejaVuSans-29" transform="translate(1074.640625 0)"/>
      <use xlink:href="#DejaVuSans-2f" transform="translate(1132.15625 0)"/>
      <use xlink:href="#DejaVuSans-32" transform="translate(1184.3125 0)"/>
      <use xlink:href="#DejaVuSans-33" transform="translate(1263.03125 0)"/>
      <use xlink:href="#DejaVuSans-12" transform="translate(1323.328125 0)"/>
      <use xlink:href="#DejaVuSans-25" transform="translate(1357.015625 0)"/>
      <use xlink:href="#DejaVuSans-5c" transform="translate(1425.625 0)"/>
      <use xlink:href="#DejaVuSans-57" transform="translate(1484.8125 0)"/>
      <use xlink:href="#DejaVuSans-48" transform="translate(1524.015625 0)"/>
      <use xlink:href="#DejaVuSans-c" transform="translate(1585.546875 0)"/>
     </g>
    </g>
    <g id="patch_8">
     <path d="M 704.86375 449.874531 
L 724.86375 449.874531 
L 724.86375 442.874531 
L 704.86375 442.874531 
z
" style="fill: #22c55e; fill-opacity: 0.2"/>
    </g>
    <g id="text_10">
     <!-- memory-bound -->
     <g transform="translate(732.86375 449.874531) scale(0.1 -0.1)">
      <defs>
       <path id="DejaVuSans-10" d="M 313 2009 
L 1997 2009 
L 1997 1497 
L 313 1497 
L 313 2009 
z
" transform="scale(0.015625)"/>
       <path id="DejaVuSans-58" d="M 544 1381 
L 544 3500 
L 1119 3500 
L 1119 1403 
Q 1119 906 1312 657 
Q 1506 409 1894 409 
Q 2359 409 2629 706 
Q 2900 1003 2900 1516 
L 2900 3500 
L 3475 3500 
L 3475 0 
L 2900 0 
L 2900 538 
Q 2691 219 2414 64 
Q 2138 -91 1772 -91 
Q 1169 -91 856 284 
Q 544 659 544 1381 
z
M 1991 3584 
L 1991 3584 
z
" transform="scale(0.015625)"/>
      </defs>
      <use xlink:href="#DejaVuSans-50"/>
      <use xlink:href="#DejaVuSans-48" transform="translate(97.40625 0)"/>
      <use xlink:href="#DejaVuSans-50" transform="translate(158.9375 0)"/>
      <use xlink:href="#DejaVuSans-52" transform="translate(256.34375 0)"/>
      <use xlink:href="#DejaVuSans-55" transform="translate(317.53125 0)"/>
      <use xlink:href="#DejaVuSans-5c" transform="translate(358.640625 0)"/>
      <use xlink:href="#DejaVuSans-10" transform="translate(416.078125 0)"/>
      <use xlink:href="#DejaVuSans-45" transform="translate(452.15625 0)"/>
      <use xlink:href="#DejaVuSans-52" transform="translate(515.640625 0)"/>
      <use xlink:href="#DejaVuSans-58" transform="translate(576.828125 0)"/>
      <use xlink:href="#DejaVuSans-51" transform="translate(640.203125 0)"/>
      <use xlink:href="#DejaVuSans-47" transform="translate(703.578125 0)"/>
     </g>
    </g>
    <g id="patch_9">
     <path d="M 704.86375 464.875313 
L 724.86375 464.875313 
L 724.86375 457.875313 
L 704.86375 457.875313 
z
" style="fill: #ef4444; fill-opacity: 0.2"/>
    </g>
    <g id="text_11">
     <!-- compute-bound -->
     <g transform="translate(732.86375 464.875313) scale(0.1 -0.1)">
      <use xlink:href="#DejaVuSans-46"/>
      <use xlink:href="#DejaVuSans-52" transform="translate(54.984375 0)"/>
      <use xlink:href="#DejaVuSans-50" transform="translate(116.171875 0)"/>
      <use xlink:href="#DejaVuSans-53" transform="translate(213.578125 0)"/>
      <use xlink:href="#DejaVuSans-58" transform="translate(277.0625 0)"/>
      <use xlink:href="#DejaVuSans-57" transform="translate(340.4375 0)"/>
      <use xlink:href="#DejaVuSans-48" transform="translate(379.640625 0)"/>
      <use xlink:href="#DejaVuSans-10" transform="translate(441.171875 0)"/>
      <use xlink:href="#DejaVuSans-45" transform="translate(477.25 0)"/>
      <use xlink:href="#DejaVuSans-52" transform="translate(540.734375 0)"/>
      <use xlink:href="#DejaVuSans-58" transform="translate(601.921875 0)"/>
      <use xlink:href="#DejaVuSans-51" transform="translate(665.296875 0)"/>
      <use xlink:href="#DejaVuSans-47" transform="translate(728.671875 0)"/>
     </g>
    </g>
   </g>
  </g>
 </g>
 <defs>
  <clipPath id="p9d012f88aa">
   <rect x="59.482344" y="36.32" width="844.837656" height="439.957656"/>
  </clipPath>
 </defs>
</svg>
